<?xml version="1.0" encoding="UTF-8"?>
<!DOCTYPE svg PUBLIC "-//W3C//DTD SVG 1.1//EN" "http://www.w3.org/Graphics/SVG/1.1/DTD/svg11.dtd">
<!-- Creator: CorelDRAW X7 -->
<svg xmlns="http://www.w3.org/2000/svg" xml:space="preserve" width="0.531197in" height="0.5in" version="1.1" style="shape-rendering:geometricPrecision; text-rendering:geometricPrecision; image-rendering:optimizeQuality; fill-rule:evenodd; clip-rule:evenodd"
viewBox="0 0 274 258"
 xmlns:xlink="http://www.w3.org/1999/xlink">
 <defs>
  <style type="text/css">
   <![CDATA[
    .fil0 {fill:none;fill-rule:nonzero}
    .fil1 {fill:#D6BA1C;fill-rule:nonzero}
   ]]>
  </style>
 </defs>
 <g id="Layer_x0020_1">
  <metadata id="CorelCorpID_0Corel-Layer"/>
  <g id="_1905408978592">
   <g>
    <path class="fil0" d="M94 5c2,-1 3,-1 5,-2 -2,1 -3,1 -5,2z"/>
   </g>
   <g>
    <path class="fil0" d="M69 17l-1 0c1,0 1,0 1,0 0,0 0,0 0,0z"/>
   </g>
   <g>
    <path class="fil0" d="M260 109l1 3c0,0 0,-1 -1,-1l0 -2z"/>
   </g>
   <g>
    <polygon class="fil0" points="258,90 257,89 258,91 "/>
   </g>
   <g>
    <path class="fil0" d="M258 93l0 0c0,0 0,0 0,1 0,0 0,0 0,-1z"/>
   </g>
   <g>
    <path class="fil0" d="M241 51c0,0 0,0 0,0l-2 -3c0,0 0,0 0,0 0,0 0,1 1,1l1 2z"/>
   </g>
   <g>
    <path class="fil0" d="M229 36c-1,0 -1,-1 -2,-2 0,1 0,1 0,1l2 1z"/>
   </g>
   <g>
    <path class="fil0" d="M250 66l-1 -1c1,1 1,1 1,2 0,-1 0,-1 0,-1z"/>
   </g>
   <g>
    <path class="fil0" d="M175 3c1,1 3,1 4,2 -1,-1 -3,-1 -4,-2z"/>
   </g>
   <g>
    <path class="fil0" d="M252 70c-1,0 -1,-1 -1,-1 0,-1 -1,-1 -1,-2l1 3 1 0z"/>
   </g>
   <g>
    <path class="fil0" d="M257 88l0 -1 0 -1c0,1 0,1 0,2l0 0z"/>
   </g>
   <g>
    <path class="fil0" d="M204 17c0,0 0,0 0,0 0,0 1,0 1,0l-1 0z"/>
   </g>
   <g>
    <path class="fil0" d="M24 66c0,0 0,0 -1,1 1,-1 1,-1 1,-2l0 1z"/>
   </g>
   <g>
    <path class="fil0" d="M32 51c0,0 0,0 0,0l1 -1 -1 1z"/>
   </g>
   <g>
    <path class="fil0" d="M22 69c0,0 0,0 0,0l1 -2c0,1 0,1 -1,2z"/>
   </g>
   <g>
    <path class="fil0" d="M34 48l0 1c0,0 0,-1 0,-1 0,0 0,0 0,0z"/>
   </g>
   <g>
    <path class="fil0" d="M15 93c0,1 0,1 0,1 0,-1 0,-1 0,-1l0 0z"/>
   </g>
   <g>
    <path class="fil0" d="M260 137l0 -1c0,0 0,0 0,1 0,0 0,0 0,0z"/>
   </g>
   <g>
    <polygon class="fil0" points="16,89 16,90 16,91 16,88 "/>
   </g>
   <g>
    <path class="fil0" d="M16 87l0 1 0 0c0,-1 0,-1 1,-2l-1 1z"/>
   </g>
   <g>
    <path class="fil0" d="M259 140c0,0 1,-1 1,-2l-1 3c0,0 0,0 0,-1z"/>
   </g>
   <g>
    <path class="fil0" d="M259 144l0 -2c0,0 0,0 0,0l0 4 0 -2z"/>
   </g>
   <g>
    <path class="fil0" d="M46 34c0,1 -1,2 -2,2 0,0 0,0 0,0l2 -1c0,0 0,0 0,-1z"/>
   </g>
   <path class="fil1" d="M93 237c-1,-7 -3,-14 -4,-20 -5,-4 -11,-7 -16,-10 1,7 2,14 3,21l0 0c1,0 2,1 3,2 0,0 -1,-1 -1,-1 -7,2 -14,4 -21,6 6,4 12,8 18,11 7,-2 14,-5 20,-8 0,0 -1,0 -2,-1l0 0z"/>
   <path class="fil1" d="M64 220l0 0c-1,-7 -1,-13 -1,-20 -4,-3 -8,-7 -11,-11 -2,6 -3,12 -3,19l0 0c1,1 1,2 2,2 0,0 0,0 0,0 -7,1 -14,1 -21,1 5,5 10,10 15,14 7,-1 14,-2 21,-4 -1,0 -2,0 -2,-1z"/>
   <path class="fil1" d="M41 200c0,0 -1,-1 -1,-1l0 0c1,-7 2,-13 4,-18 -3,-5 -5,-9 -7,-14 -1,1 -2,3 -2,4 -1,2 -2,3 -2,4 -1,2 -1,3 -2,5 -1,1 -1,3 -2,4l0 0c1,1 2,3 2,4 0,-1 0,-1 -1,-2 -1,0 -3,0 -4,-1 -1,0 -2,0 -3,0l-2 -1c-2,0 -3,0 -5,-1 -1,0 -3,-1 -5,-1 3,6 7,12 11,17 6,1 13,1 19,1z"/>
   <path class="fil1" d="M20 174c1,0 3,1 4,1 0,0 0,-1 -1,-2l1 0c0,-1 1,-3 1,-4 1,-1 2,-2 3,-4 1,-2 3,-5 4,-7 -1,-5 -3,-10 -4,-14 -1,1 -1,2 -2,3 -1,1 -2,2 -3,3 -1,1 -2,3 -3,4 -1,1 -2,2 -2,3l-1 0c1,1 1,2 1,3 -1,-1 -3,-2 -4,-2 -1,-1 -3,-2 -4,-2 -3,-2 -5,-3 -8,-5 1,6 3,12 5,18l2 1c1,0 2,1 2,1 2,0 3,1 5,1 1,1 3,1 4,2z"/>
   <path class="fil1" d="M12 146c1,1 2,1 3,2 0,-1 0,-1 0,-2l0 0 0 0c4,-4 7,-8 11,-12l0 -4 0 -3c0,-2 0,-3 0,-4 -1,-1 -1,-2 -1,-4 -2,2 -4,4 -6,6 -2,2 -4,3 -6,5l0 0c0,1 0,2 0,3 -4,-4 -9,-7 -13,-11l0 4 0 4 0 2 1 3c0,1 0,2 0,4 2,2 5,3 7,5 1,1 2,1 4,2z"/>
   <path class="fil1" d="M13 107c-2,-2 -3,-4 -5,-6 -1,-1 -2,-2 -3,-3 -1,-1 -1,-2 -2,-3 0,1 -1,3 -1,4l0 4 0 2c-1,1 -1,1 -1,2l0 4c2,2 4,4 6,5 2,2 4,4 6,6l0 -2 0 -1 0 0c2,-1 4,-3 6,-4l1 -2 2 -1c1,-1 2,-1 3,-2 0,-1 0,-2 0,-3l1 -4 0 -1c0,-1 0,-1 0,-2l1 -3c-3,1 -5,2 -7,4 -2,1 -4,2 -7,4l0 0c0,0 0,1 0,2l0 0z"/>
   <path class="fil1" d="M17 84c-1,-2 -2,-4 -4,-7 0,-1 -1,-2 -1,-3 -1,-1 -1,-2 -2,-3l-1 2c0,0 0,1 0,1l-1 4c-1,1 -1,2 -1,4l-1 3c2,4 5,8 8,12 1,-1 1,-2 1,-2l0 0c1,-1 2,-1 3,-2 1,-1 2,-1 3,-2 1,0 2,-1 3,-1 1,-1 2,-1 4,-2l0 -3 1 -3 1 -1 0 -1 0 -1 1 -2c-2,0 -4,1 -6,2 -3,1 -5,2 -7,3l0 -1 -1 3z"/>
   <path class="fil1" d="M20 75l1 -3 0 1c2,-1 4,-2 6,-2 1,-1 2,-1 3,-1 1,0 3,-1 4,-1l1 -2c0,-1 1,-2 1,-3 1,-1 1,-2 2,-2l1 -3c-1,0 -2,0 -3,1 -1,0 -2,0 -3,0 -2,0 -5,1 -7,1l0 0c0,1 -1,2 -1,2 0,-1 -1,-2 -1,-3 -1,-1 -1,-2 -1,-3 -1,-2 -2,-4 -2,-6 -1,0 -1,1 -2,2l-2 3c0,1 -1,2 -1,3 -1,1 -1,2 -2,4 1,2 2,4 3,6 1,2 2,4 3,6z"/>
   <path class="fil1" d="M29 56c1,-1 1,-2 2,-3l0 1 0 0c1,0 2,0 3,-1 1,0 2,0 3,0 2,0 3,0 5,0 2,-2 3,-3 4,-4l1 -2c1,-1 2,-2 2,-2 -2,0 -4,0 -6,0 -2,0 -4,0 -6,0l0 -1 -1 2c0,0 0,0 0,0 -1,-4 -2,-8 -2,-12 -1,2 -3,3 -4,5l-2 2c-1,1 -1,2 -2,3 1,2 1,4 2,6 0,2 1,4 1,6z"/>
   <path class="fil1" d="M43 38c0,0 -1,0 -1,0l0 1c4,0 8,0 11,0l4 -3c1,-1 2,-2 3,-3 -2,0 -3,0 -5,-1 -1,0 -2,0 -3,0l-2 -1 0 0 -2 2 0 0c0,-2 0,-4 0,-6 0,-2 0,-3 0,-5l-2 2c-1,0 -1,1 -2,1l-2 2 -2 2c0,4 0,8 1,11 0,-1 1,-1 2,-2z"/>
   <path class="fil1" d="M55 27c3,0 6,1 9,2l2 -1 2 -2 2 -1c0,0 1,0 2,-1 -3,-1 -6,-2 -10,-3l0 0c0,1 -1,1 -1,1 0,-3 0,-6 1,-9l-4 2 -4 3c0,2 0,4 -1,5l0 3 0 2c1,0 1,-1 2,-1l0 0z"/>
   <path class="fil1" d="M68 18c1,0 2,1 4,1 1,1 2,1 4,2 1,-1 2,-2 3,-2 1,0 1,-1 2,-1l2 -1c-3,-1 -6,-2 -8,-3l0 0c-1,0 -2,0 -2,1 0,-3 1,-6 2,-9l-4 2c-1,1 -2,2 -4,2 0,3 -1,6 -1,9l2 -1 0 0z"/>
   <path class="fil1" d="M80 11c1,1 2,1 3,2 1,0 2,1 3,1 1,0 2,-1 3,-1 2,0 3,-1 4,-1 -3,-1 -5,-3 -7,-4l0 0c-1,0 -1,1 -2,1 1,-2 1,-5 2,-7 -1,1 -2,1 -3,2l-3 1c-1,2 -2,5 -2,7 0,0 1,-1 2,-1l0 0z"/>
   <path class="fil1" d="M102 3c-2,-1 -3,-2 -5,-3 -1,0 -2,1 -3,1 -1,0 -2,1 -3,1 0,2 -1,3 -1,5 1,-1 2,-1 3,-1 1,0 2,1 4,2l1 -1 2 0c1,0 2,-1 3,-1 0,-1 1,-3 2,-4l-3 1z"/>
   <path class="fil1" d="M180 237c2,-7 4,-14 5,-20 5,-4 10,-7 15,-10 0,7 -1,14 -2,21l0 0c-1,0 -2,1 -3,2 0,0 1,-1 1,-1 7,2 14,4 21,6 -6,4 -12,8 -19,11 -6,-2 -13,-5 -20,-8 1,0 2,0 2,-1l0 0z"/>
   <path class="fil1" d="M210 220l0 0c0,-7 1,-13 0,-20 4,-3 8,-7 12,-11 1,6 2,12 2,19l1 0c-1,1 -2,2 -3,2 1,0 1,0 1,0 7,1 14,1 21,1 -5,5 -10,10 -16,14 -7,-1 -14,-2 -20,-4 1,0 1,0 2,-1z"/>
   <path class="fil1" d="M232 200c1,0 1,-1 2,-1l0 0c-1,-7 -3,-13 -5,-18 3,-5 6,-9 8,-14 1,1 1,3 2,4 1,2 1,3 2,4 1,2 1,3 2,5 0,1 1,3 1,4l0 0c0,1 -1,3 -2,4 1,-1 1,-1 1,-2 2,0 3,0 5,-1 1,0 2,0 2,0l3 -1c1,0 3,0 4,-1 2,0 4,-1 5,-1 -3,6 -6,12 -10,17 -7,1 -13,1 -20,1z"/>
   <path class="fil1" d="M254 174c-2,0 -3,1 -5,1 1,0 1,-1 1,-2l0 0c-1,-1 -1,-3 -2,-4 0,-1 -1,-2 -2,-4 -1,-2 -3,-5 -4,-7 1,-5 2,-10 3,-14 1,1 2,2 3,3 1,1 2,2 3,3 1,1 2,3 2,4 1,1 2,2 3,3l0 0c0,1 0,2 -1,3 2,-1 3,-2 5,-2 1,-1 2,-2 4,-2 2,-2 5,-3 8,-5 -2,6 -3,12 -5,18l-3 1c0,0 -1,1 -2,1 -1,0 -3,1 -4,1 -1,1 -3,1 -4,2z"/>
   <path class="fil1" d="M266 144c2,-2 4,-3 7,-5 0,-2 0,-3 0,-4l0 -3 0 -2 1 -4 0 -4c-5,4 -9,7 -13,11 0,-1 0,-2 0,-3l0 0c-2,-2 -4,-3 -7,-5 -2,-2 -4,-4 -6,-6 0,2 0,3 0,4 0,1 0,2 0,4l0 3 -1 4c4,4 8,8 12,12l0 0 0 0c0,1 0,1 -1,2 2,-1 3,-1 4,-2 1,-1 2,-1 4,-2z"/>
   <path class="fil1" d="M261 107c1,-2 3,-4 5,-6 1,-1 2,-2 2,-3 1,-1 2,-2 3,-3 0,1 0,3 0,4l1 4 0 2c0,1 0,1 0,2l1 4c-2,2 -4,4 -6,5 -2,2 -4,4 -6,6l0 -2 0 -1 0 0c-2,-1 -4,-3 -6,-4l-2 -2 -1 -1c-1,-1 -2,-1 -3,-2 0,-1 0,-2 -1,-3l0 -4 0 -1c0,-1 0,-1 0,-2l-1 -3c2,1 4,2 7,4 2,1 4,2 6,4l0 0c0,0 0,1 0,2l1 0z"/>
   <path class="fil1" d="M256 81l0 1c-3,-1 -5,-2 -7,-3 -2,-1 -4,-2 -7,-2l1 2 1 1 0 1 0 1 1 3 1 3c1,1 2,1 3,2 1,0 2,1 3,1 2,1 3,1 4,2 1,1 2,1 3,2l0 0c0,0 0,1 0,2 3,-4 6,-8 9,-12l-1 -3c0,-2 -1,-3 -1,-4l-1 -4c0,0 0,-1 -1,-1l0 -2c-1,1 -1,2 -2,3 -1,1 -1,2 -2,3 -1,3 -2,5 -4,7l0 -3z"/>
   <path class="fil1" d="M257 69c0,-2 1,-4 2,-6 0,-2 -1,-3 -1,-4 -1,-1 -1,-2 -2,-3l-1 -3c-1,-1 -2,-2 -2,-2 -1,2 -1,4 -2,6 0,1 -1,2 -1,3 -1,1 -1,2 -1,3 -1,0 -1,-1 -1,-2l-1 0c-2,0 -4,-1 -6,-1 -1,0 -2,0 -3,0 -1,-1 -2,-1 -3,-1l1 3c1,0 1,1 1,2 1,1 1,2 2,3l1 2c1,0 2,1 3,1 1,0 2,0 3,1 2,0 5,1 7,2l0 -1 0 3c2,-2 3,-4 4,-6z"/>
   <path class="fil1" d="M246 50c0,-2 1,-4 1,-6 0,-1 -1,-2 -1,-3l-2 -2c-2,-2 -3,-3 -4,-5 -1,4 -1,8 -2,12 0,0 0,0 0,0l-1 -2 -1 1c-2,0 -4,0 -6,0 -2,0 -4,0 -5,0 0,0 1,1 1,2l2 2c1,1 2,2 3,4 2,0 4,0 6,0 1,0 2,0 3,0 1,1 2,1 3,1l0 0 0 -1c0,1 1,2 1,3 1,-2 1,-4 2,-6z"/>
   <path class="fil1" d="M233 40c0,-3 1,-7 1,-11l-2 -2 -2 -2c-1,0 -2,-1 -2,-1l-2 -2c0,2 0,3 0,5 0,2 0,4 0,6l0 0 -2 -2 0 0 -3 1c-1,0 -1,0 -2,0 -2,1 -4,1 -6,1 2,1 3,2 4,3l4 3c3,0 7,0 10,0l0 -1c0,0 0,0 0,0 1,1 1,1 2,2z"/>
   <path class="fil1" d="M213 22c0,-3 -1,-6 -1,-9l4 2 4 3c0,2 0,4 0,5l0 3 0 2c0,0 -1,-1 -1,-1l0 0c-4,0 -7,1 -10,2l-2 -1 -1 -2 -2 -1c-1,0 -1,0 -2,-1 3,-1 6,-2 9,-3l0 0c1,1 1,1 2,1z"/>
   <path class="fil1" d="M206 18l2 1c-1,-3 -1,-6 -2,-9 -1,0 -2,-1 -3,-2l-4 -2c1,3 1,6 2,9 -1,-1 -1,-1 -2,-1l0 0c-3,1 -5,2 -8,3l2 1c0,0 1,1 1,1 2,0 3,1 4,2 1,-1 2,-1 4,-2 1,0 3,-1 4,-1l0 0z"/>
   <path class="fil1" d="M194 11c-1,1 -2,1 -3,2 -2,0 -3,1 -4,1 -1,0 -2,-1 -3,-1 -1,0 -2,-1 -3,-1 2,-1 4,-3 7,-4l0 0c0,0 1,1 2,1 -1,-2 -2,-5 -3,-7 1,1 3,1 4,2l3 1c1,2 1,5 2,7 -1,0 -1,-1 -2,-1l0 0z"/>
   <path class="fil1" d="M169 2c1,1 1,3 2,4 1,0 2,1 3,1l1 0 2 1c1,-1 3,-2 4,-2 1,0 2,0 3,1 -1,-2 -1,-3 -2,-5 -1,0 -2,-1 -3,-1 -1,0 -2,-1 -3,-1 -1,1 -3,2 -4,3l-3 -1z"/>
   <path class="fil1" d="M91 76l-7 0c-1,0 -3,10 -3,21 0,11 2,20 3,20l10 0c1,4 3,8 4,11l-1 0c-2,0 -4,2 -4,4l0 7c0,3 2,5 4,5 1,0 2,1 2,2 0,1 -1,2 -2,2 -1,0 -2,-1 -2,-2l0 0c-1,-2 -2,-3 -3,-3l-11 0c-3,0 -5,3 -5,6 0,1 0,1 0,1 6,21 15,37 15,37 4,6 10,10 16,11 1,0 16,3 29,3l0 0 0 0 1 0 0 0 0 0c12,0 28,-3 28,-3 7,-1 13,-5 17,-11 0,0 9,-16 15,-37 0,0 0,0 0,-1 0,-3 -2,-6 -6,-6l-10 0c-1,0 -3,1 -3,3l0 0c0,1 -1,2 -2,2 -1,0 -2,-1 -2,-2 0,-1 1,-2 2,-2 2,0 4,-2 4,-5l0 -7c0,-2 -2,-4 -4,-4l-1 0c2,-3 3,-7 4,-11l9 0c2,0 3,-9 3,-20 0,-11 -1,-21 -3,-21l-6 0c-5,-20 -22,-35 -43,-36l0 -11c0,-2 -1,-3 -3,-3 -1,0 -3,1 -3,3l0 11c-21,1 -38,16 -42,36zm45 -12l0 0c18,0 33,15 33,33 0,18 -15,33 -33,33 -18,0 -33,-15 -33,-33 0,-18 15,-33 33,-33z"/>
   <path class="fil1" d="M136 127c17,0 30,-14 30,-30 0,-17 -13,-30 -30,-30 -16,0 -30,13 -30,30 0,16 14,30 30,30zm-14 -22l0 0 6 -6 6 6 -6 6c-1,0 -2,0 -2,0l-4 -4c-1,0 -1,-1 0,-2zm8 -8l0 0 6 -6 6 6 -6 6 -6 -6zm6 21l0 0c-4,0 -8,-2 -11,-4 1,1 1,1 2,1 1,0 2,-1 3,-2l6 -6 6 6c1,1 2,2 4,2 0,0 0,0 1,-1 -3,2 -7,4 -11,4zm14 -11l0 0 -4 4c0,1 -1,1 -1,0l-6 -6 5 -6 6 6c1,1 1,1 1,1 0,0 0,1 -1,1zm4 -21l0 0c2,3 3,7 3,11 0,4 -1,7 -3,10 0,0 0,0 0,-1 0,-1 0,-2 -1,-3l-6 -6 6 -6c1,-1 1,-2 1,-4 0,0 0,0 0,-1zm-3 1l0 0c0,1 0,1 -1,1l-6 6 -5 -5 6 -6c0,-1 0,-1 1,-1 0,0 0,0 0,1l4 4c1,0 1,0 1,0zm-15 -11l0 0c4,0 8,1 11,3 -1,0 -1,0 -1,0 -2,0 -3,0 -4,1l-6 6 -6 -6c-1,-1 -2,-1 -3,-1 -1,0 -1,0 -2,0 3,-2 7,-3 11,-3zm-14 11l0 0 4 -4c0,-1 1,-1 2,0l6 6 -6 5 -6 -6c-1,0 -1,-1 0,-1zm-3 -1l0 0c-1,0 -1,1 -1,1 0,2 1,3 2,4l6 6 -6 6c-1,1 -2,2 -2,3 0,1 0,1 1,2 -2,-3 -4,-7 -4,-11 0,-4 2,-8 4,-11z"/>
   <path class="fil1" d="M187 67c5,0 9,-4 9,-9 0,-5 -4,-9 -9,-9 -5,0 -9,4 -9,9 0,5 4,9 9,9zm5 -12l0 0c0,0 0,-1 0,-1 0,0 1,0 1,0 2,2 2,5 0,7 0,0 -1,0 -1,0 0,0 0,-1 0,-1 1,-1 1,-3 0,-5zm-1 -3l0 0c0,0 1,0 1,1 0,0 -1,0 -1,0 0,0 -1,0 -1,0 0,-1 1,-1 1,-1z"/>
   <path class="fil1" d="M63 140c5,0 9,-4 9,-9 0,-5 -4,-9 -9,-9 -5,0 -9,4 -9,9 0,5 4,9 9,9zm6 -11l0 0c-1,-1 -1,-1 0,-1 0,0 0,0 1,0 1,2 1,5 0,7 -1,0 -1,0 -1,0 -1,0 -1,-1 0,-1 1,-2 1,-4 0,-5zm-1 -3l0 0c0,0 0,0 0,0 0,1 0,1 0,1 -1,0 -1,0 -1,-1 0,0 0,0 1,0z"/>
   <path class="fil1" d="M174 43c-3,0 -5,2 -5,4 0,3 2,5 5,5 3,0 5,-2 5,-5 0,-2 -2,-4 -5,-4zm3 2l0 0c-1,0 -1,0 -1,0 0,-1 0,-1 1,-1 0,0 0,0 0,1 0,0 0,0 0,0zm1 4l0 0c0,0 -1,1 -1,0 0,0 0,0 0,0 1,-1 1,-2 0,-3 0,0 0,0 0,0 0,-1 1,-1 1,0 1,1 1,2 0,3z"/>
   <path class="fil1" d="M46 116c0,3 2,5 5,5 2,0 5,-2 5,-5 0,-2 -3,-5 -5,-5 -3,0 -5,3 -5,5zm8 -1l0 0c0,0 -1,-1 0,-1 0,0 0,0 0,0 1,2 1,3 0,4 0,0 0,0 0,0 -1,0 0,0 0,0 0,-1 0,-2 0,-3zm-1 -2l0 0c0,0 0,0 0,0 0,1 0,1 0,1 0,0 0,0 0,-1 0,0 0,0 0,0z"/>
   <path class="fil1" d="M68 94c-3,0 -5,2 -5,5 0,3 2,5 5,5 3,0 5,-2 5,-5 0,-3 -2,-5 -5,-5zm2 3l0 0c0,0 0,-1 0,-1 0,0 0,0 0,0 0,0 1,0 1,0 0,0 -1,1 -1,1zm1 4l0 0c0,0 0,0 0,-1 0,0 0,-1 0,-2 0,0 0,-1 0,-1 0,0 0,0 0,0 1,1 1,3 0,4 0,0 0,0 0,0z"/>
   <path class="fil1" d="M68 74c-3,0 -5,2 -5,5 0,3 2,5 5,5 3,0 5,-2 5,-5 0,-3 -2,-5 -5,-5zm2 2l0 0c0,0 0,0 0,0 0,0 0,0 0,0 0,0 1,0 1,0 0,0 -1,0 -1,0zm1 5l0 0c0,0 0,-1 0,-1 0,-1 0,-2 0,-3 0,0 0,0 0,0 0,0 0,0 0,0 1,1 1,3 0,4 0,0 0,0 0,0z"/>
   <path class="fil1" d="M186 41c0,-2 -1,-3 -3,-3 -1,0 -2,1 -2,3 0,1 1,2 2,2 2,0 3,-1 3,-2zm-1 -1l0 0c0,0 0,0 0,0 0,0 0,0 0,0 1,0 1,1 0,2 0,0 0,0 0,0 0,0 0,-1 0,-1 0,0 0,-1 0,-1zm0 -1l0 0c0,0 0,0 0,0 0,0 0,0 0,0 -1,0 -1,0 -1,0 0,0 0,0 1,0z"/>
   <path class="fil1" d="M53 103c0,-2 -1,-3 -2,-3 -2,0 -3,1 -3,3 0,1 1,2 3,2 1,0 2,-1 2,-2zm-1 -1l0 0c0,0 0,0 0,0 0,0 0,0 0,0 1,0 1,1 0,2 0,0 0,0 0,0 0,0 0,0 0,-1 0,0 0,-1 0,-1zm0 -1l0 0c0,0 0,0 0,0 0,0 0,1 0,1 0,0 0,-1 0,-1 0,0 0,0 0,0z"/>
   <path class="fil1" d="M60 97c2,0 3,-1 3,-3 0,-1 -1,-2 -3,-2 -1,0 -2,1 -2,2 0,2 1,3 2,3zm2 -4l0 0c0,0 0,0 0,0 0,0 0,0 0,0 1,1 1,2 0,2 0,0 0,0 0,0 0,0 0,0 0,0 0,-1 0,-1 0,-2zm0 0l0 0c0,0 0,0 0,0 0,0 0,0 0,0 0,0 -1,0 -1,0 0,0 1,0 1,0z"/>
   <path class="fil1" d="M60 111c2,0 3,-1 3,-3 0,-1 -1,-2 -3,-2 -1,0 -2,1 -2,2 0,2 1,3 2,3zm2 -3l0 0c0,0 0,-1 0,-1 0,0 0,0 0,0 1,1 1,2 0,2 0,0 0,0 0,0 0,0 0,0 0,0 0,0 0,-1 0,-1zm0 -1l0 0c0,0 0,0 0,0 0,0 0,0 0,0 0,0 -1,0 -1,0 0,0 1,0 1,0z"/>
   <path class="fil1" d="M159 220l-45 0 -11 18 -2 0 11 20 48 0 11 -20 -1 0 -11 -18zm-37 34l0 0 -5 0 -10 -16 2 0 9 -15 5 0 -9 15 -1 0 9 16zm17 -16l0 0 -9 16 -6 0 9 -16 1 0 8 -15 6 0 -9 15 0 0zm17 16l0 0 -6 0 10 -16 -2 0 -8 -15 5 0 9 15 1 0 -9 16z"/>
  </g>
 </g>
</svg>
