<?xml version="1.0" encoding="UTF-8"?>
<!DOCTYPE svg PUBLIC "-//W3C//DTD SVG 1.1//EN" "http://www.w3.org/Graphics/SVG/1.1/DTD/svg11.dtd">
<!-- Creator: CorelDRAW X7 -->
<svg xmlns="http://www.w3.org/2000/svg" xml:space="preserve" width="1.06239in" height="1in" version="1.1" style="shape-rendering:geometricPrecision; text-rendering:geometricPrecision; image-rendering:optimizeQuality; fill-rule:evenodd; clip-rule:evenodd"
viewBox="0 0 722 680"
 xmlns:xlink="http://www.w3.org/1999/xlink">
 <defs>
  <style type="text/css">
   <![CDATA[
    .fil0 {fill:none;fill-rule:nonzero}
    .fil1 {fill:#D6BA1C;fill-rule:nonzero}
   ]]>
  </style>
 </defs>
 <g id="Layer_x0020_1">
  <metadata id="CorelCorpID_0Corel-Layer"/>
  <g id="_1905408722848">
   <g>
    <path class="fil0" d="M249 13c4,-1 7,-3 11,-4 -4,1 -7,3 -11,4z"/>
   </g>
   <g>
    <path class="fil0" d="M183 44l-3 2c1,-1 2,-1 3,-2 0,0 0,0 0,0z"/>
   </g>
   <g>
    <path class="fil0" d="M687 288l1 8c0,-2 0,-3 0,-4l-1 -4z"/>
   </g>
   <g>
    <polygon class="fil0" points="680,238 679,234 681,240 "/>
   </g>
   <g>
    <path class="fil0" d="M682 247l0 -1c0,0 0,1 0,1 0,0 0,0 0,0z"/>
   </g>
   <g>
    <path class="fil0" d="M636 134c0,0 0,0 0,0l-4 -6c0,0 -1,-1 -1,-1 1,1 1,1 2,2l3 5z"/>
   </g>
   <g>
    <path class="fil0" d="M605 96c-2,-2 -4,-3 -5,-5 0,0 0,0 1,1l4 4z"/>
   </g>
   <g>
    <path class="fil0" d="M659 174l-1 -1c1,1 1,2 2,3 -1,-1 -1,-1 -1,-2z"/>
   </g>
   <g>
    <path class="fil0" d="M461 9c4,1 8,3 12,4 -4,-1 -8,-3 -12,-4z"/>
   </g>
   <g>
    <path class="fil0" d="M664 186c-1,-2 -1,-3 -2,-4 0,-2 -1,-3 -1,-4l2 6 1 2z"/>
   </g>
   <g>
    <path class="fil0" d="M679 232l-1 -3 0 -1c0,2 1,3 1,4l0 0z"/>
   </g>
   <g>
    <path class="fil0" d="M539 44c0,0 0,0 0,0 0,1 1,1 2,2l-2 -2z"/>
   </g>
   <g>
    <path class="fil0" d="M63 174c-1,1 -1,1 -1,2 0,-1 1,-2 1,-3l0 1z"/>
   </g>
   <g>
    <path class="fil0" d="M86 134c0,0 -1,0 -1,0l2 -2 -1 2z"/>
   </g>
   <g>
    <path class="fil0" d="M59 182c0,0 0,1 0,1l2 -5c0,1 -1,2 -2,4z"/>
   </g>
   <g>
    <path class="fil0" d="M90 128l-1 1c0,-1 1,-1 2,-2 -1,0 -1,1 -1,1z"/>
   </g>
   <g>
    <path class="fil0" d="M39 247c0,0 0,0 0,0 0,0 1,-1 1,-1l-1 1z"/>
   </g>
   <g>
    <path class="fil0" d="M686 360l0 -1c0,0 0,1 0,2 0,0 0,0 0,-1z"/>
   </g>
   <g>
    <polygon class="fil0" points="42,234 41,238 41,240 42,234 "/>
   </g>
   <g>
    <path class="fil0" d="M43 229l0 3 0 0c0,-1 0,-2 1,-4l-1 1z"/>
   </g>
   <g>
    <path class="fil0" d="M685 371c0,-2 0,-4 1,-6l-2 8c1,-1 1,-1 1,-2z"/>
   </g>
   <g>
    <path class="fil0" d="M683 381l1 -5c0,0 0,0 0,-1l-1 10 0 -4z"/>
   </g>
   <g>
    <path class="fil0" d="M122 91c-2,2 -3,3 -5,5 0,0 0,0 0,0l4 -4c0,-1 1,-1 1,-1z"/>
   </g>
   <path class="fil1" d="M247 626c-5,-18 -9,-36 -12,-54 -15,-8 -28,-17 -41,-26 1,18 3,37 6,55l0 0c3,2 6,4 9,6 -2,-1 -3,-2 -4,-3 -18,7 -36,12 -55,16 15,11 32,21 48,30 19,-6 36,-13 54,-21 -2,-1 -4,-2 -6,-2l1 -1z"/>
   <path class="fil1" d="M168 581l1 0c-2,-18 -2,-35 -2,-52 -11,-10 -21,-20 -31,-31 -3,16 -5,34 -6,52l-1 0c2,2 4,3 6,5 0,0 -1,-1 -1,-1 -18,2 -36,3 -55,2 13,14 27,27 41,39 18,-2 36,-6 53,-10 -1,-1 -3,-3 -5,-4z"/>
   <path class="fil1" d="M109 529c-1,-2 -3,-3 -4,-5l1 0c2,-16 6,-32 11,-47 -8,-12 -14,-23 -20,-36 -2,4 -4,7 -6,11 -1,4 -3,7 -5,11 -1,4 -3,8 -4,12 -2,3 -3,7 -4,11l-1 0c2,3 4,7 6,10 -1,-2 -2,-3 -3,-5 -4,0 -8,-1 -12,-2 -2,0 -4,0 -6,-1l-7 -1c-4,-1 -8,-2 -12,-4 -4,-1 -9,-2 -13,-4 8,16 17,32 28,46 17,3 34,4 51,4z"/>
   <path class="fil1" d="M53 459c4,1 7,3 11,4 -1,-2 -2,-4 -2,-6l0 0c2,-3 3,-7 5,-10 2,-4 4,-7 6,-11 3,-6 8,-13 12,-19 -4,-12 -8,-25 -10,-38 -3,3 -5,6 -7,9 -3,2 -5,5 -8,9 -2,3 -4,6 -7,9 -2,3 -4,6 -6,10l-1 -1c1,2 1,4 2,6 -4,-1 -7,-3 -11,-5 -3,-1 -7,-3 -10,-5 -8,-4 -14,-8 -22,-12 4,16 8,32 14,47l5 3c2,0 4,1 6,2 4,2 8,3 11,4 4,2 8,3 12,4z"/>
   <path class="fil1" d="M31 385c3,2 6,4 9,6 0,-2 0,-3 -1,-5l0 -1 1 0c9,-11 19,-22 29,-32l-1 -9 0 -10c-1,-3 -1,-6 -1,-9 0,-3 0,-6 0,-10 -5,5 -11,9 -16,14 -6,5 -11,10 -16,15l-1 0c0,2 0,4 1,6 -12,-9 -24,-18 -35,-28l0 11 1 11 0 6 1 5c0,4 0,8 1,12 6,4 12,8 18,13 3,2 7,4 10,5z"/>
   <path class="fil1" d="M35 282c-5,-4 -10,-9 -14,-15 -3,-2 -5,-5 -7,-8 -2,-2 -4,-5 -7,-8 0,3 -1,7 -1,10l-1 11 -1 5c0,2 0,3 0,5l-1 11c5,5 10,10 15,14 5,5 10,10 15,14l0 -5 0 -1 1 0c5,-4 10,-9 16,-13l3 -3 5 -3c2,-2 5,-4 8,-6 0,-2 0,-5 1,-8l1 -9 0 -4c0,-2 0,-3 1,-5l1 -8c-6,3 -12,6 -17,10 -6,3 -12,7 -17,11l-1 -1c0,2 0,4 0,5l0 1z"/>
   <path class="fil1" d="M46 221c-4,-6 -7,-11 -10,-16 -2,-3 -4,-6 -5,-9 -2,-3 -3,-6 -5,-9l-1 5c-1,2 -1,3 -2,5l-3 9c-1,3 -2,6 -3,9l-2 10c7,11 15,21 23,31 0,-2 1,-4 1,-6l0 0c3,-2 6,-3 9,-5 2,-1 5,-3 8,-4 3,-2 5,-3 8,-4 3,-2 6,-3 9,-4l2 -8 2 -8 1 -3 1 -2 1 -2 3 -8c-6,2 -12,4 -18,6 -6,2 -12,5 -18,7l0 0 -1 6z"/>
   <path class="fil1" d="M53 197l2 -6 1 1c5,-2 11,-4 16,-6 3,0 6,-1 8,-2 3,-1 6,-1 9,-2l3 -6c1,-3 2,-5 4,-7 1,-2 2,-4 3,-6l4 -7c-3,1 -5,1 -8,1 -3,1 -6,1 -9,2 -5,1 -11,2 -17,3l0 -1c-1,2 -2,4 -3,6 -1,-3 -2,-6 -3,-8 -1,-3 -2,-6 -3,-9 -2,-5 -4,-11 -5,-17 -2,3 -3,6 -5,8l-4 8c-1,3 -3,5 -4,8 -1,3 -3,5 -4,8 2,6 5,11 7,16 3,6 6,11 8,16z"/>
   <path class="fil1" d="M77 147c2,-2 3,-5 4,-7l0 2 0 0c2,0 5,-1 8,-1 2,0 5,0 8,-1 5,0 10,-1 15,-1 3,-3 6,-7 9,-10l4 -6c1,-1 3,-3 5,-5 -6,0 -11,0 -16,0 -5,0 -11,0 -16,0l0 -1 -4 5c0,0 0,0 0,0 -2,-10 -3,-21 -4,-32 -4,4 -8,8 -11,13l-5 6c-1,2 -3,4 -5,7 1,5 3,10 4,15 1,6 3,11 4,16z"/>
   <path class="fil1" d="M112 101c0,0 0,0 0,0l0 1c9,0 19,1 28,2l9 -8c4,-3 7,-6 10,-8 -5,-1 -9,-2 -14,-3 -2,0 -5,-1 -7,-1l-7 -1 0 -1 -5 4 0 0c0,-4 0,-9 0,-14 0,-5 0,-9 1,-14l-6 4c-2,2 -3,4 -5,5l-6 5 -5 5c1,10 1,20 3,29 1,-2 3,-4 4,-5z"/>
   <path class="fil1" d="M145 71c9,1 17,3 25,5l5 -3 5 -3 4 -3c2,-1 3,-2 5,-3 -8,-3 -16,-5 -24,-8l0 0c-2,1 -4,2 -5,3 1,-8 2,-17 3,-25l-10 7 -11 7c0,5 -1,9 -1,13l0 7 0 6c1,-1 3,-3 4,-4l0 1z"/>
   <path class="fil1" d="M179 47c3,1 7,2 11,4 3,1 7,2 10,4 3,-2 6,-4 9,-5 1,-1 3,-2 4,-3l5 -2c-7,-3 -14,-6 -21,-8l0 -1c-1,1 -3,2 -5,3 1,-7 3,-15 5,-22l-10 5c-3,2 -6,4 -9,6 -2,7 -3,14 -4,22l5 -3 0 0z"/>
   <path class="fil1" d="M210 30c3,1 6,2 9,4 3,1 6,2 9,4 3,-1 6,-3 8,-4 3,-1 6,-2 8,-3 -5,-3 -11,-6 -17,-9l0 0c-2,0 -3,1 -5,2 2,-6 4,-12 6,-18 -3,1 -6,2 -9,3l-9 4c-2,6 -3,13 -5,19 2,-1 4,-2 6,-3l-1 1z"/>
   <path class="fil1" d="M268 7c-3,-3 -7,-5 -11,-7 -3,1 -5,2 -8,3 -3,1 -5,2 -8,3 -2,4 -3,8 -4,12 2,-1 5,-2 7,-3 4,2 8,4 12,6l3 -1 4 -2c3,-1 5,-1 8,-2 2,-4 3,-8 5,-12l-8 3z"/>
   <path class="fil1" d="M476 626c4,-18 9,-36 12,-54 14,-8 28,-17 41,-26 -1,18 -3,37 -7,55l1 0c-3,2 -6,4 -9,6 1,-1 2,-2 4,-3 17,7 36,12 55,16 -16,11 -32,21 -49,30 -18,-6 -36,-13 -53,-21 2,-1 3,-2 5,-2l0 -1z"/>
   <path class="fil1" d="M554 581l0 0c1,-18 2,-35 1,-52 11,-10 22,-20 31,-31 4,16 6,34 6,52l1 0c-2,2 -4,3 -6,5 1,0 1,-1 2,-1 17,2 35,3 54,2 -12,14 -26,27 -40,39 -19,-2 -37,-6 -54,-10 2,-1 3,-3 5,-4z"/>
   <path class="fil1" d="M613 529c2,-2 3,-3 4,-5l0 0c-2,-16 -6,-32 -12,-47 8,-12 15,-23 21,-36 1,4 3,7 5,11 2,4 4,7 5,11 2,4 3,8 5,12 1,3 2,7 4,11l0 0c-2,3 -4,7 -6,10 1,-2 2,-3 3,-5 4,0 8,-1 13,-2 2,0 4,0 6,-1l6 -1c4,-1 8,-2 13,-4 4,-1 8,-2 12,-4 -8,16 -17,32 -27,46 -18,3 -35,4 -52,4z"/>
   <path class="fil1" d="M670 459c-4,1 -8,3 -12,4 1,-2 2,-4 3,-6l-1 0c-1,-3 -3,-7 -5,-10 -2,-4 -3,-7 -5,-11 -4,-6 -8,-13 -12,-19 4,-12 7,-25 9,-38 3,3 5,6 8,9 2,2 5,5 7,9 3,3 5,6 7,9 2,3 5,6 7,10l0 -1c0,2 -1,4 -1,6 3,-1 7,-3 10,-5 4,-1 7,-3 11,-5 7,-4 14,-8 21,-12 -3,16 -8,32 -13,47l-6 3c-2,0 -4,1 -6,2 -3,2 -7,3 -11,4 -4,2 -8,3 -11,4z"/>
   <path class="fil1" d="M701 380c6,-5 12,-9 19,-13 0,-4 0,-8 1,-12l0 -5 1 -6 0 -11 0 -11c-11,10 -22,19 -34,28 0,-2 0,-4 0,-6l0 0c-5,-5 -11,-10 -16,-15 -6,-5 -11,-9 -17,-14 0,4 0,7 0,10 0,3 0,6 0,9l-1 10 -1 9c11,10 21,21 30,32l0 0 0 1c0,2 0,3 -1,5 3,-2 6,-4 10,-6 3,-1 6,-3 9,-5z"/>
   <path class="fil1" d="M688 282c5,-4 9,-9 14,-15 2,-2 4,-5 6,-8 3,-2 5,-5 7,-8 0,3 1,7 2,10l1 11 0 5c1,2 1,3 1,5l0 11c-4,5 -9,10 -14,14 -6,5 -11,10 -16,14l0 -5 0 -1 0 0c-5,-4 -11,-9 -16,-13l-4 -3 -4 -3c-3,-2 -6,-4 -8,-6 -1,-2 -1,-5 -1,-8l-1 -9 -1 -4c0,-2 0,-3 0,-5l-2 -8c6,3 12,6 18,10 5,3 11,7 17,11l0 -1c0,2 1,4 1,5l0 1z"/>
   <path class="fil1" d="M675 215l0 0c-6,-2 -12,-5 -18,-7 -5,-2 -11,-4 -17,-6l3 8 0 2 1 2 1 3 3 8 2 8c3,1 5,2 8,4 3,1 6,2 8,4 3,1 6,3 9,4 3,2 5,3 8,5l0 0c1,2 1,4 1,6 9,-10 16,-20 23,-31l-2 -10c-1,-3 -2,-6 -3,-9l-3 -9c0,-2 -1,-3 -1,-5l-2 -5c-1,3 -3,6 -4,9 -2,3 -4,6 -5,9 -3,5 -7,10 -10,16l-2 -6z"/>
   <path class="fil1" d="M677 181c3,-5 5,-10 7,-16 -1,-3 -2,-5 -4,-8 -1,-3 -2,-5 -4,-8l-4 -8c-1,-2 -3,-5 -4,-8 -2,6 -4,12 -6,17 -1,3 -2,6 -3,9 -1,2 -2,5 -3,8 -1,-2 -2,-4 -3,-6l0 1c-6,-1 -11,-2 -17,-3 -3,-1 -6,-1 -8,-2 -3,0 -6,0 -9,-1l4 7c1,2 3,4 4,6 1,2 2,4 3,7l4 6c2,1 5,1 8,2 3,1 5,2 8,2 6,2 11,4 17,6l0 -1 2 6c3,-5 6,-10 8,-16z"/>
   <path class="fil1" d="M649 131c2,-5 3,-10 4,-15 -1,-3 -3,-5 -5,-7l-5 -6c-3,-5 -7,-9 -10,-13 -1,11 -3,22 -5,32 0,0 0,0 0,0l-4 -5 0 1c-5,0 -10,0 -16,0 -5,0 -10,0 -15,0 1,2 3,4 4,5l5 6c3,3 6,7 8,10 6,0 11,1 16,1 2,1 5,1 8,1 2,0 5,1 8,1l0 0 -1 -2c1,2 3,5 4,7 2,-5 3,-10 4,-16z"/>
   <path class="fil1" d="M615 106c1,-9 2,-19 2,-29l-5 -5 -5 -5c-2,-1 -4,-3 -6,-5l-5 -4c0,5 0,9 0,14 0,5 0,10 0,14l0 0 -4 -4 -1 1 -7 1c-2,0 -4,1 -7,1 -4,1 -9,2 -14,3 4,2 7,5 10,8l9 8c9,-1 19,-2 29,-2l0 -1c-1,0 -1,0 -1,0 2,1 3,3 5,5z"/>
   <path class="fil1" d="M563 59c-1,-8 -2,-17 -4,-25l11 7 10 7c1,5 1,9 1,13l1 7 0 6c-2,-1 -3,-3 -5,-4l0 1c-8,1 -17,3 -25,5l-4 -3 -5 -3 -5 -3c-1,-1 -3,-2 -5,-3 8,-3 16,-5 25,-8l0 0c1,1 3,2 5,3z"/>
   <path class="fil1" d="M543 47l6 3c-2,-8 -3,-15 -4,-22 -4,-2 -7,-4 -10,-6l-10 -5c2,7 4,15 5,22 -1,-1 -3,-2 -5,-3l0 1c-7,2 -14,5 -21,8l5 2c1,1 3,2 4,3 3,1 6,3 9,5 4,-2 7,-3 11,-4 3,-2 7,-3 11,-4l-1 0z"/>
   <path class="fil1" d="M512 30c-3,1 -6,2 -9,4 -3,1 -6,2 -9,4 -2,-1 -5,-3 -8,-4 -3,-1 -5,-2 -8,-3 6,-3 11,-6 17,-9l0 0c2,0 4,1 6,2 -2,-6 -4,-12 -6,-18 3,1 6,2 8,3l9 4c2,6 4,13 5,19 -2,-1 -3,-2 -5,-3l0 1z"/>
   <path class="fil1" d="M446 4c2,4 4,8 5,12 3,1 6,1 8,2l4 2 4 1c3,-2 7,-4 11,-6 3,1 5,2 8,3 -2,-4 -3,-8 -5,-12 -2,-1 -5,-2 -8,-3 -2,-1 -5,-2 -8,-3 -3,2 -7,4 -11,7l-8 -3z"/>
   <path class="fil1" d="M239 202l-17 0c-4,0 -8,24 -8,54 0,30 4,54 8,54l26 0c3,11 7,20 11,29l-3 0c-6,0 -11,5 -11,11l0 18c0,6 5,11 11,11 3,0 6,3 6,6 0,3 -3,6 -6,6 -3,0 -6,-3 -6,-6l0 0c-1,-4 -4,-7 -8,-7l-27 0c-9,0 -15,7 -15,16 -1,2 0,3 0,3 16,54 41,97 41,98 9,15 25,26 43,28 0,1 42,9 76,9l0 0 0 0 0 0 1 0 0 0c33,0 75,-8 76,-9 17,-2 33,-13 42,-28 1,-1 25,-44 41,-98 0,0 1,-1 1,-3 0,-9 -7,-16 -16,-16l-27 0c-4,0 -7,3 -8,7l0 0c0,3 -2,6 -6,6 -3,0 -5,-3 -5,-6 0,-3 2,-6 5,-6 6,0 11,-5 11,-11l0 -18c0,-6 -5,-11 -11,-11l-2 0c4,-9 7,-19 10,-29l24 0c4,0 8,-24 8,-54 0,-30 -4,-54 -8,-54l-16 0c-12,-53 -58,-93 -113,-96l0 -30c0,-4 -3,-7 -7,-7 -4,0 -8,3 -8,7l0 30c-55,3 -101,43 -113,96zm120 -32l0 0c48,0 86,38 86,86 0,47 -38,86 -86,86 -47,0 -86,-39 -86,-86 0,-48 39,-86 86,-86z"/>
   <path class="fil1" d="M359 335c44,0 79,-36 79,-79 0,-44 -35,-79 -79,-79 -43,0 -79,35 -79,79 0,43 36,79 79,79zm-37 -57l0 0 16 -16 15 15 -16 16c-1,1 -3,1 -4,0l-11 -11c-1,-1 -1,-3 0,-4zm22 -22l0 0 16 -16 15 16 -15 15 -16 -15zm15 54l0 0c-10,0 -20,-3 -29,-8 2,1 3,1 5,1 3,0 6,-1 8,-4l17 -16 16 16c2,3 5,4 8,4 1,0 3,0 4,-1 -8,5 -18,8 -29,8zm38 -28l0 0 -11 11c-1,1 -3,1 -4,0l-16 -16 15 -15 16 16c1,1 1,1 1,2 0,1 0,2 -1,2zm9 -55l0 0c5,9 8,18 8,29 0,10 -3,19 -8,28 1,-1 1,-3 1,-4 0,-3 -1,-6 -4,-8l-16 -16 16 -17c3,-2 4,-5 4,-8 0,-1 0,-2 -1,-4zm-8 4l0 0c0,1 0,1 -1,2l-16 16 -15 -15 16 -16c1,-1 1,-1 2,-1 1,0 2,0 2,1l11 11c1,0 1,1 1,2zm-39 -30l0 0c11,0 21,3 29,8 -1,-1 -3,-1 -4,-1 -3,0 -6,1 -8,4l-16 16 -17 -16c-2,-3 -5,-4 -8,-4 -2,0 -3,1 -5,1 9,-5 19,-8 29,-8zm-37 28l0 0 11 -11c1,-1 3,-1 4,0l16 16 -15 15 -16 -16c-1,-1 -1,-3 0,-4zm-9 -3l0 0c0,1 -1,3 -1,5 0,3 1,6 4,8l16 17 -16 16c-3,2 -4,5 -4,8 0,2 1,4 1,5 -5,-8 -8,-18 -8,-29 0,-11 3,-22 8,-30z"/>
   <path class="fil1" d="M493 176c13,0 24,-11 24,-24 0,-13 -11,-23 -24,-23 -13,0 -24,10 -24,23 0,13 11,24 24,24zm14 -31l0 0c0,0 0,-2 0,-2 1,-1 2,-1 3,0 4,6 4,12 0,18 -1,1 -2,1 -3,0 0,0 0,-2 0,-2 3,-4 3,-10 0,-14zm-3 -8l0 0c1,0 2,1 2,2 0,1 -1,1 -2,1 0,0 -1,0 -1,-1 0,-1 1,-2 1,-2z"/>
   <path class="fil1" d="M167 370c13,0 23,-10 23,-23 0,-13 -10,-24 -23,-24 -13,0 -24,11 -24,24 0,13 11,23 24,23zm14 -30l0 0c0,-1 0,-2 0,-3 1,0 2,0 3,1 4,5 4,12 0,17 -1,1 -2,2 -3,1 0,-1 0,-2 0,-3 3,-4 3,-9 0,-13zm-3 -8l0 0c1,0 2,0 2,1 0,1 -1,2 -2,2 -1,0 -1,-1 -1,-2 0,-1 0,-1 1,-1z"/>
   <path class="fil1" d="M460 112c-7,0 -13,6 -13,13 0,7 6,13 13,13 7,0 13,-6 13,-13 0,-7 -6,-13 -13,-13zm6 7l0 0c0,0 -1,-1 -1,-1 0,-1 1,-1 1,-1 1,0 1,0 1,1 0,0 0,1 -1,1zm3 11l0 0c0,1 -1,1 -1,0 -1,0 -1,-1 0,-1 1,-2 1,-5 0,-7 -1,-1 -1,-1 0,-2 0,0 1,0 1,1 2,2 2,6 0,9z"/>
   <path class="fil1" d="M121 307c0,7 5,13 13,13 7,0 13,-6 13,-13 0,-7 -6,-13 -13,-13 -8,0 -13,6 -13,13zm21 -4l0 0c-1,0 -1,-1 0,-1 0,-1 1,0 1,0 2,3 2,7 0,10 0,0 -1,1 -1,0 -1,0 -1,-1 0,-1 1,-3 1,-5 0,-8zm-2 -4l0 0c1,0 1,0 1,1 0,0 0,1 -1,1 -1,0 -1,-1 -1,-1 0,-1 0,-1 1,-1z"/>
   <path class="fil1" d="M179 249c-7,0 -13,5 -13,13 0,7 6,13 13,13 7,0 13,-6 13,-13 0,-8 -6,-13 -13,-13zm6 6l0 0c0,0 0,0 0,-1 0,0 0,-1 0,-1 1,0 1,1 1,1 0,1 0,1 -1,1zm2 12l0 0c0,-1 0,-1 0,-2 2,-2 2,-5 0,-7 0,-1 0,-1 0,-2 0,0 1,0 2,1 2,3 2,6 0,9 -1,1 -2,1 -2,1z"/>
   <path class="fil1" d="M179 195c-7,0 -13,6 -13,13 0,7 6,13 13,13 7,0 13,-6 13,-13 0,-7 -6,-13 -13,-13zm6 7l0 0c0,0 0,-1 0,-1 0,-1 0,-1 0,-1 1,0 1,0 1,1 0,0 0,1 -1,1zm2 11l0 0c0,0 0,-1 0,-1 2,-3 2,-5 0,-8 0,0 0,-1 0,-1 0,-1 1,0 2,0 2,3 2,7 0,10 -1,0 -2,1 -2,0z"/>
   <path class="fil1" d="M491 107c0,-3 -3,-6 -7,-6 -4,0 -6,3 -6,6 0,4 2,7 6,7 4,0 7,-3 7,-7zm-3 -1l0 0c0,-1 0,-1 0,-1 0,0 1,0 1,0 1,2 1,3 0,5 0,0 -1,0 -1,0 0,0 0,0 0,-1 1,-1 1,-2 0,-3zm-1 -3l0 0c0,0 1,1 1,1 0,0 -1,0 -1,0 0,0 0,0 0,0 0,0 0,-1 0,-1z"/>
   <path class="fil1" d="M140 271c0,-3 -3,-6 -6,-6 -4,0 -7,3 -7,6 0,4 3,7 7,7 3,0 6,-3 6,-7zm-2 -2l0 0c-1,0 -1,0 0,0 0,0 0,0 0,0 1,1 1,3 0,5 0,0 0,0 0,0 -1,0 -1,-1 0,-1 0,-1 0,-2 0,-4zm-1 -2l0 0c0,0 0,0 0,1 0,0 0,0 0,0 0,0 -1,0 -1,0 0,-1 1,-1 1,-1z"/>
   <path class="fil1" d="M160 255c3,0 6,-3 6,-6 0,-4 -3,-7 -6,-7 -4,0 -7,3 -7,7 0,3 3,6 7,6zm4 -8l0 0c-1,0 -1,-1 0,-1 0,0 0,0 0,0 1,2 1,4 0,5 0,0 0,0 0,0 -1,0 -1,0 0,-1 0,-1 0,-2 0,-3zm-1 -3l0 0c0,0 0,1 0,1 0,0 0,0 0,0 0,0 -1,0 -1,0 0,0 1,-1 1,-1z"/>
   <path class="fil1" d="M160 292c3,0 6,-2 6,-6 0,-4 -3,-7 -6,-7 -4,0 -7,3 -7,7 0,4 3,6 7,6zm4 -8l0 0c-1,0 -1,0 0,-1 0,0 0,0 0,1 1,1 1,3 0,4 0,1 0,1 0,0 -1,0 -1,0 0,0 0,-1 0,-3 0,-4zm-1 -2l0 0c0,0 0,0 0,0 0,0 0,1 0,1 0,0 -1,-1 -1,-1 0,0 1,0 1,0z"/>
   <path class="fil1" d="M420 581l-120 0 -28 48 -5 0 30 51 126 0 30 -51 -5 0 -28 -48zm-97 90l0 0 -15 0 -24 -42 4 0 23 -39 14 0 -23 39 -3 0 24 42zm45 -42l0 0 -24 42 -16 0 24 -42 1 0 23 -39 14 0 -23 39 1 0zm44 42l0 0 -15 0 24 -42 -3 0 -23 -39 15 0 22 39 5 0 -25 42z"/>
  </g>
 </g>
</svg>
