<svg xmlns="http://www.w3.org/2000/svg" viewBox="0 0 449.23 422.85"><defs><style>.cls-1{fill:none;}.cls-2{fill:#d6bb1d;}</style></defs><title>Asset 1</title><g id="Layer_2" data-name="Layer 2"><g id="Layer_1-2" data-name="Layer 1"><path class="cls-1" d="M88.05,194.1c.22.24.7.15,1-.25A5.13,5.13,0,0,0,89,188c-.29-.41-.77-.5-1-.26a.76.76,0,0,0,0,.94,3.91,3.91,0,0,1,0,4.52A.76.76,0,0,0,88.05,194.1Z"/><path class="cls-1" d="M154.89,8.08c2.29-.82,4.59-1.62,6.9-2.38C159.48,6.46,157.18,7.26,154.89,8.08Z"/><path class="cls-1" d="M113.69,27.47l-1.56,1,1.72-1.05Z"/><path class="cls-1" d="M427.45,178.84l.34,5-.15-2.17Z"/><path class="cls-1" d="M194.14,174.28a7.22,7.22,0,0,1,2.12-5.14l10.22-10.22L196.26,148.7a7.29,7.29,0,0,1-1.4-8.3,34,34,0,0,0,0,37A7.26,7.26,0,0,1,194.14,174.28Z"/><polygon class="cls-1" points="423.07 148.05 422.5 145.37 423.32 149.19 423.07 148.05"/><path class="cls-1" d="M424.23,153.47l-.1-.49.12.63C424.24,153.56,424.24,153.52,424.23,153.47Z"/><path class="cls-1" d="M223.44,212.61A53.59,53.59,0,1,0,169.85,159,53.65,53.65,0,0,0,223.44,212.61Zm0-102.64A49,49,0,1,1,174.39,159,49,49,0,0,1,223.44,110Z"/><path class="cls-1" d="M101.72,179.4c.11.12.35.07.5-.13a2.56,2.56,0,0,0,0-2.94c-.15-.21-.39-.25-.5-.13a.39.39,0,0,0,0,.47,2,2,0,0,1,0,2.26A.39.39,0,0,0,101.72,179.4Z"/><path class="cls-1" d="M101.23,175.79a.29.29,0,1,0-.29-.29A.29.29,0,0,0,101.23,175.79Z"/><path class="cls-1" d="M101.72,156.2c.11.12.35.07.5-.13a2.57,2.57,0,0,0,0-2.95c-.15-.2-.39-.25-.5-.13a.39.39,0,0,0,0,.47,2,2,0,0,1,0,2.27A.39.39,0,0,0,101.72,156.2Z"/><path class="cls-1" d="M101.23,152.58a.28.28,0,1,0-.29-.28A.28.28,0,0,0,101.23,152.58Z"/><circle class="cls-1" cx="87.06" cy="186.31" r="0.57"/><path class="cls-1" d="M210.33,155.06l9.38-9.37-10.22-10.22a1.9,1.9,0,0,0-2.59,0l-6.78,6.79a1.84,1.84,0,0,0,0,2.59Z"/><circle class="cls-1" cx="115.31" cy="158.06" r="0.57"/><path class="cls-1" d="M85.58,170.32c.11.12.35.07.49-.13a2.56,2.56,0,0,0,0-2.94c-.14-.2-.38-.25-.49-.13a.39.39,0,0,0,0,.47,2,2,0,0,1,0,2.26A.39.39,0,0,0,85.58,170.32Z"/><circle class="cls-1" cx="85.09" cy="166.42" r="0.28"/><path class="cls-1" d="M112.73,221.4c.4.43,1.29.26,1.8-.47a9.28,9.28,0,0,0,0-10.67c-.51-.73-1.4-.9-1.8-.47a1.4,1.4,0,0,0,0,1.7,7.14,7.14,0,0,1,0,8.21A1.4,1.4,0,0,0,112.73,221.4Z"/><path class="cls-1" d="M110.94,208.3a1,1,0,1,0-1-1A1,1,0,0,0,110.94,208.3Z"/><path class="cls-1" d="M395.64,83.52l-.07-.09-2.65-3.82c-.15-.22-.31-.42-.47-.63.34.45.67.9,1,1.37Z"/><path class="cls-1" d="M303.49,68.43c.11.12.35.07.49-.13a2.56,2.56,0,0,0,0-2.94c-.14-.21-.38-.25-.49-.13a.36.36,0,0,0,0,.47,2,2,0,0,1,0,2.26A.36.36,0,0,0,303.49,68.43Z"/><circle class="cls-1" cx="302.99" cy="64.53" r="0.28"/><path class="cls-1" d="M290.82,74.71a.77.77,0,0,0,0,.94,4,4,0,0,1,0,4.53.77.77,0,0,0,0,.94c.22.23.71.14,1-.26a5.13,5.13,0,0,0,0-5.89C291.53,74.56,291,74.47,290.82,74.71Z"/><path class="cls-1" d="M376.12,59.65c-1.06-1-2.1-2.09-3.15-3.13l.49.49Z"/><path class="cls-1" d="M313.72,87.25a1,1,0,1,0-1-1A1,1,0,0,0,313.72,87.25Z"/><path class="cls-1" d="M315.51,100.34c.4.44,1.28.26,1.79-.47a9.28,9.28,0,0,0,0-10.67c-.51-.73-1.39-.9-1.79-.47a1.38,1.38,0,0,0,0,1.7,7.14,7.14,0,0,1,0,8.21A1.38,1.38,0,0,0,315.51,100.34Z"/><path class="cls-1" d="M289.83,72.76a.57.57,0,1,0,.57.56A.56.56,0,0,0,289.83,72.76Z"/><path class="cls-1" d="M409.82,108.32l-.45-.9c.29.59.57,1.19.84,1.79Z"/><path class="cls-1" d="M287,5.7c2.31.76,4.61,1.56,6.9,2.38C291.58,7.26,289.28,6.46,287,5.7Z"/><path class="cls-1" d="M236.79,162.77l-9.38,9.37,10.22,10.22a1.86,1.86,0,0,0,2.59,0l6.78-6.78a1.81,1.81,0,0,0,.54-1.3A1.78,1.78,0,0,0,247,173Z"/><path class="cls-1" d="M240.64,158.92l10.22,10.22a7.23,7.23,0,0,1,2.13,5.14,7.36,7.36,0,0,1-.31,2.1,34,34,0,0,0,0-34.92,7.27,7.27,0,0,1-1.82,7.24Z"/><path class="cls-1" d="M233.78,186.22,223.56,176l-10.22,10.22a7.23,7.23,0,0,1-5.15,2.12,7.31,7.31,0,0,1-2.9-.6,34.05,34.05,0,0,0,35.93.23,7.32,7.32,0,0,1-2.29.37A7.23,7.23,0,0,1,233.78,186.22Z"/><path class="cls-1" d="M413,115.51c-.37-.84-.74-1.68-1.1-2.52s-.72-1.68-1.09-2.52l1.63,3.76Z"/><path class="cls-1" d="M238.93,135a1.82,1.82,0,0,0-1.3.52l-10.22,10.22,9.38,9.37L247,144.85a1.82,1.82,0,0,0,.54-1.3,1.78,1.78,0,0,0-.54-1.29l-6.78-6.79A1.81,1.81,0,0,0,238.93,135Z"/><path class="cls-1" d="M422.2,144l-.35-1.34-.2-.73c.22.81.43,1.63.64,2.45Z"/><path class="cls-1" d="M213.34,131.62l10.22,10.22,10.22-10.22a7.27,7.27,0,0,1,7.43-1.76,34.06,34.06,0,0,0-35.9.23,7.26,7.26,0,0,1,8,1.53Z"/><path class="cls-1" d="M209.49,182.36l10.22-10.22-9.38-9.37L200.12,173a1.84,1.84,0,0,0,0,2.59l6.78,6.78A1.88,1.88,0,0,0,209.49,182.36Z"/><path class="cls-1" d="M335.07,27.47l-.16-.09c.58.34,1.14.7,1.71,1.05Z"/><rect class="cls-1" x="216.93" y="152.29" width="13.26" height="13.26" transform="translate(-46.89 204.63) rotate(-45)"/><path class="cls-1" d="M38.94,108.32l-.39.89c.27-.6.55-1.2.84-1.79Z"/><path class="cls-1" d="M53.19,83.43l-.06.09,1.16-1.67Z"/><path class="cls-1" d="M36.9,113c-.12.28-.25.56-.37.85L38,110.47C37.62,111.31,37.26,112.15,36.9,113Z"/><path class="cls-1" d="M55.84,79.61l-.51.74c.31-.47.64-.92,1-1.37C56.15,79.19,56,79.39,55.84,79.61Z"/><path class="cls-1" d="M24.53,153.47c0,.05,0,.09,0,.14l.12-.62Z"/><path class="cls-1" d="M117.28,159.71c-.28-.4-.77-.5-1-.26a.78.78,0,0,0,0,.94,4,4,0,0,1,0,4.53.78.78,0,0,0,0,.94c.22.24.71.14,1-.26A5.13,5.13,0,0,0,117.28,159.71Z"/><path class="cls-1" d="M426.68,224.09l.11-1.13-.15,1.5C426.65,224.34,426.67,224.21,426.68,224.09Z"/><polygon class="cls-1" points="26.27 145.34 25.69 148.05 25.48 149.02 26.28 145.29 26.27 145.34"/><path class="cls-1" d="M26.91,142.64,26.56,144l-.09.38c.21-.82.42-1.64.64-2.46Z"/><path class="cls-1" d="M425.86,230.49l.45-3.44-.68,5.15C425.71,231.63,425.78,231.06,425.86,230.49Z"/><path class="cls-1" d="M424.87,236.85l.55-3.17,0-.2-1,6Z"/><circle class="cls-1" cx="115.31" cy="124.77" r="0.57"/><path class="cls-1" d="M117.28,126.42c-.28-.41-.77-.5-1-.26a.78.78,0,0,0,0,.94,4,4,0,0,1,0,4.53.78.78,0,0,0,0,.94c.22.23.71.14,1-.26A5.13,5.13,0,0,0,117.28,126.42Z"/><path class="cls-1" d="M75.79,56.52c-1.05,1-2.09,2.1-3.15,3.14h0L75.3,57Z"/><path class="cls-2" d="M153.43,389.5c-3-11.4-5.55-22.78-7.46-34.06a281.61,281.61,0,0,1-25.52-15.95,269.93,269.93,0,0,0,4,34.41l-.31.11c1.86,1.1,3.74,2.18,5.62,3.25-.8-.45-1.6-.89-2.39-1.35A294.64,294.64,0,0,1,93,385.55a347,347,0,0,0,30.43,18.54c11.39-3.85,22.36-8.19,33.08-12.81l-3.35-1.66Z"/><path class="cls-2" d="M104.74,361.42l.29-.07a216.1,216.1,0,0,1-.9-32.64,174.46,174.46,0,0,1-19.39-19.13,182.33,182.33,0,0,0-3.95,32.25l-.33,0c1.19,1.1,2.42,2.17,3.64,3.24-.28-.25-.58-.48-.85-.74a198.16,198.16,0,0,1-34,1.47,237.84,237.84,0,0,0,25.26,24.09,251.22,251.22,0,0,0,33.24-6.36C106.75,362.87,105.75,362.13,104.74,361.42Z"/><path class="cls-2" d="M67.75,328.93c-.83-.93-1.66-1.87-2.47-2.81h.33a165.49,165.49,0,0,1,7.11-29.75,150.8,150.8,0,0,1-12.47-22c-1.23,2.2-2.33,4.41-3.42,6.66s-2.18,4.6-3.15,6.93-1.93,4.72-2.85,7.16-1.71,4.86-2.53,7.38l-.33-.06q1.8,3,3.72,5.83c-.59-.88-1.19-1.75-1.76-2.63-2.56-.38-5.11-.83-7.72-1.32-1.3-.25-2.61-.5-3.92-.78l-3.87-.9c-2.58-.63-5.24-1.29-7.84-2s-5.19-1.58-7.82-2.45a198.21,198.21,0,0,0,17,28.61A183,183,0,0,0,67.75,328.93Z"/><path class="cls-2" d="M32.82,285.55c2.36.73,4.65,1.45,7,2.06-.54-1.12-1.06-2.26-1.58-3.39l.31.09c1-2.25,2.09-4.45,3.16-6.61s2.28-4.31,3.45-6.4c2.29-4.15,4.9-8.23,7.48-12.07a177.57,177.57,0,0,1-6-23.61C45,237.39,43.5,239.17,42,241s-3,3.7-4.52,5.61-2.87,3.84-4.29,5.83-2.85,4-4.16,6.08l-.3-.14c.33,1.19.69,2.38,1.05,3.57-2.21-1-4.45-2-6.67-3.08s-4.39-2.22-6.6-3.4c-4.48-2.35-8.72-4.92-13.1-7.65a208.37,208.37,0,0,0,8.24,29.61L15.13,279c1.17.5,2.37,1,3.55,1.46q3.54,1.43,7,2.72C28.06,284,30.47,284.8,32.82,285.55Z"/><path class="cls-2" d="M19.14,239.71c2,1.2,3.88,2.37,5.91,3.48-.24-1-.44-2.1-.61-3.16l-.09-.52.28.17a209.79,209.79,0,0,1,18.29-20l-.53-5.84L42.07,208c-.14-2-.16-3.93-.19-5.91s-.11-3.95-.09-5.92c-3.49,2.75-6.88,5.64-10.33,8.64s-6.67,6.11-10,9.36l-.26-.2c0,1.25.16,2.49.28,3.73A256.52,256.52,0,0,1,0,200.05L.13,207l.37,7,.21,3.49L1,221c.23,2.33.4,4.66.69,7,3.86,2.83,7.63,5.53,11.54,8.08C15.22,237.28,17.19,238.52,19.14,239.71Z"/><path class="cls-2" d="M21.52,175.65c-3-3-5.77-6.18-8.64-9.44-1.41-1.63-2.87-3.29-4.22-5s-2.7-3.4-4-5.15c-.33,2.15-.76,4.3-1,6.46L2.9,169l-.37,3.23c-.12,1.08-.16,2.16-.25,3.23l-.43,6.47c2.94,3.16,6.17,6.2,9.28,9.15s6.23,5.78,9.53,8.51l0-3v-.75l.25.21q4.95-4.19,9.91-8l2.47-1.92,2.56-1.86q2.57-1.85,5.12-3.6c.15-1.82.19-3.67.42-5.47l.62-5.44.31-2.72c.11-.9.29-1.79.42-2.69l.88-5.37q-5.4,2.91-10.87,6.2c-3.53,2.21-7,4.55-10.6,7l-.22-.24c-.11,1-.25,2-.33,3"/><path class="cls-2" d="M28.34,137.28c-2.25-3.28-4.24-6.61-6.25-10.07q-1.5-2.59-3-5.27c-1-1.79-1.84-3.57-2.75-5.4l-1.07,2.85c-.35,1-.63,1.93-1,2.89l-1.84,5.78c-.66,1.92-1.1,3.88-1.64,5.83l-1.55,5.85A211.89,211.89,0,0,0,23.62,159c.21-1.23.41-2.47.61-3.7l.21.26c1.66-1,3.39-2,5.14-2.95s3.47-1.86,5.19-2.75,3.44-1.76,5.15-2.59,3.53-1.61,5.29-2.37L46.49,140,48,135.21l.76-2.39.38-1.19.44-1.17,1.76-4.68c-3.6,1.11-7.32,2.3-11,3.67s-7.22,2.88-10.88,4.5l-.17-.28"/><path class="cls-2" d="M33.11,122.45l1.32-3.5.15.29c3.36-1.25,6.9-2.31,10.32-3.29q2.58-.74,5.11-1.4c1.69-.45,3.47-.82,5.18-1.19l2-4.14c.69-1.38,1.49-2.69,2.22-4s1.47-2.7,2.28-4l2.44-3.91c-1.73.18-3.48.37-5.25.59s-3.56.46-5.28.77q-5.23.9-10.64,2.09l-.11-.31c-.58,1.11-1.13,2.23-1.68,3.35-.69-1.66-1.38-3.35-2-5S38,95.3,37.37,93.57C36.22,90.12,35,86.52,34.1,83c-1,1.56-1.91,3.18-2.81,4.8l-2.72,4.87c-.87,1.64-1.66,3.32-2.5,5s-1.68,3.32-2.42,5q2.16,5.22,4.46,10.16C29.65,116.06,31.41,119.33,33.11,122.45Z"/><path class="cls-2" d="M48.14,91.23c.84-1.32,1.66-2.67,2.5-4l-.51.81.09.32c1.65-.24,3.24-.48,4.89-.66s3.3-.34,4.92-.48c3.28-.27,6.41-.52,9.67-.56C71.45,84.44,73.09,82.13,75,80l2.74-3.25c.92-1.08,1.92-2.09,2.87-3.15-3.2-.24-6.48-.43-9.7-.45s-6.59,0-9.89.1l-.07-.33L58.58,76l.06-.08a186.17,186.17,0,0,1-3-19.77c-2.17,2.56-4.36,5.1-6.47,7.71l-3.06,4c-1,1.33-2.06,2.66-3,4.06.68,3.34,1.43,6.61,2.22,9.8S47.16,88.13,48.14,91.23Z"/><path class="cls-2" d="M70,62.52l-.49.53,0,.33c6,.14,11.94.73,17.64,1.43l5.75-5.25c2-1.66,4-3.37,6-5-2.86-.64-5.69-1.16-8.62-1.68-1.46-.25-2.94-.5-4.42-.73l-4.42-.57v-.33l-2.77,2.52h0q-.15-4.38-.15-8.91c0-3,.13-6,.28-9l-3.44,2.89c-1.14,1-2.22,2-3.34,3l-3.31,3-3.21,3.17c.16,6,.75,12.09,1.46,17.87Z"/><path class="cls-2" d="M90.36,43.93c5.31,1,10.4,2.12,15.49,3.54l2.86-2.06,2.94-1.95,2.94-2c1-.63,2-1.23,3-1.86-5-1.76-10-3.22-15.22-4.64l0-.32c-1,.7-2,1.43-3.06,2.16.46-5.29,1.24-10.46,2.1-15.83L94.87,25.4,88.43,30q-.37,4-.63,8L87.58,42l-.1,4c.94-.82,1.91-1.6,2.89-2.38Z"/><path class="cls-2" d="M111.21,29.29c2.26.72,4.46,1.43,6.67,2.21s4.39,1.6,6.54,2.43c1.8-1.06,3.68-2,5.53-3,.92-.49,1.84-1,2.78-1.46l2.83-1.38c-4.23-1.95-8.52-3.71-12.93-5.41l.07-.32c-1.11.56-2.2,1.17-3.29,1.79.92-4.55,2-9,3.25-13.59l-6.1,3.21c-2,1.1-4,2.27-6,3.4-1,4.58-1.77,9.23-2.47,13.74l3.19-2Z"/><path class="cls-2" d="M130.87,18.48c1.87.81,3.71,1.61,5.55,2.46s3.66,1.73,5.46,2.61c1.66-.77,3.34-1.48,5-2.18s3.36-1.43,5.07-2.06c-3.53-2-7.08-3.75-10.77-5.58l.1-.32c-1.15.48-2.29,1-3.42,1.52,1.13-3.84,2.4-7.58,3.74-11.4-1.81.77-3.64,1.5-5.44,2.29L130.8,8.25c-1.18,3.86-2.23,7.75-3.22,11.56L131,18.17Z"/><path class="cls-2" d="M166.73,4.13c-2.25-1.44-4.5-2.76-6.81-4.13-1.7.53-3.37,1.11-5,1.71s-3.35,1.15-5,1.8q-1.42,3.76-2.74,7.49c1.63-.65,3.26-1.27,4.9-1.88,2.31,1.23,4.62,2.58,6.87,3.9l2.38-.85,2.41-.78c1.61-.51,3.21-1.07,4.83-1.54,1-2.39,2.11-4.79,3.23-7.21"/><path class="cls-2" d="M295.8,389.5c3-11.4,5.55-22.78,7.46-34.06a281.61,281.61,0,0,0,25.52-15.95,268.18,268.18,0,0,1-4,34.41l.32.11c-1.86,1.1-3.74,2.18-5.62,3.25.8-.45,1.6-.89,2.39-1.35a294.64,294.64,0,0,0,34.37,9.64,347,347,0,0,1-30.43,18.54c-11.39-3.85-22.36-8.19-33.08-12.81l3.35-1.66Z"/><path class="cls-2" d="M344.49,361.42l-.29-.07a216.1,216.1,0,0,0,.9-32.64,174.46,174.46,0,0,0,19.39-19.13,182.33,182.33,0,0,1,3.95,32.25l.33,0c-1.19,1.1-2.42,2.17-3.64,3.24.28-.25.57-.48.85-.74a198.16,198.16,0,0,0,34,1.47,237.84,237.84,0,0,1-25.26,24.09,251.22,251.22,0,0,1-33.24-6.36C342.48,362.87,343.48,362.13,344.49,361.42Z"/><path class="cls-2" d="M381.48,328.93c.83-.93,1.66-1.87,2.47-2.81h-.33a165.49,165.49,0,0,0-7.11-29.75,150.8,150.8,0,0,0,12.47-22c1.23,2.2,2.33,4.41,3.42,6.66s2.18,4.6,3.15,6.93,1.93,4.72,2.85,7.16,1.71,4.86,2.53,7.38l.33-.06q-1.8,3-3.72,5.83c.59-.88,1.19-1.75,1.76-2.63,2.56-.38,5.11-.83,7.72-1.32,1.3-.25,2.61-.5,3.92-.78l3.87-.9c2.58-.63,5.23-1.29,7.84-2s5.19-1.58,7.82-2.45a197.37,197.37,0,0,1-17,28.61A182.83,182.83,0,0,1,381.48,328.93Z"/><path class="cls-2" d="M416.41,285.55c-2.36.73-4.65,1.45-7.05,2.06.54-1.12,1.06-2.26,1.58-3.39l-.31.09c-1-2.25-2.09-4.45-3.16-6.61s-2.28-4.31-3.45-6.4c-2.29-4.15-4.9-8.23-7.48-12.07a177.57,177.57,0,0,0,6-23.61c1.62,1.77,3.13,3.55,4.64,5.37s3,3.7,4.52,5.61,2.86,3.84,4.29,5.83,2.85,4,4.16,6.08l.3-.14q-.51,1.78-1.05,3.57c2.21-1,4.45-2,6.67-3.08s4.39-2.22,6.6-3.4c4.48-2.35,8.72-4.92,13.09-7.65a207,207,0,0,1-8.23,29.61L434.1,279c-1.17.5-2.37,1-3.55,1.46q-3.54,1.43-7,2.72C421.17,284,418.76,284.8,416.41,285.55Z"/><path class="cls-2" d="M436,236c3.91-2.55,7.68-5.25,11.54-8.08.29-2.32.46-4.65.69-7l.32-3.49.21-3.49.37-7,.13-6.95a256.52,256.52,0,0,1-21.48,17.62c.12-1.24.24-2.48.28-3.73l-.26.2c-3.33-3.25-6.59-6.36-10-9.36s-6.84-5.89-10.34-8.64c0,2-.05,4-.08,5.92s-.05,3.95-.19,5.91l-.32,5.89-.53,5.84a211.12,211.12,0,0,1,18.29,20l.28-.17-.09.52c-.17,1.06-.37,2.12-.61,3.16,2-1.11,3.95-2.28,5.91-3.48S434,237.28,436,236Z"/><path class="cls-2" d="M427.71,175.65c3-3,5.76-6.18,8.64-9.44,1.41-1.63,2.87-3.29,4.22-5s2.7-3.4,4-5.15c.33,2.15.76,4.3,1,6.46l.74,6.46.37,3.23c.12,1.08.16,2.16.24,3.23l.44,6.47c-2.94,3.16-6.17,6.2-9.28,9.15s-6.23,5.78-9.53,8.51l0-3v-.75l-.25.21q-5-4.19-9.91-8L416,186.1l-2.56-1.86q-2.57-1.85-5.12-3.6c-.15-1.82-.19-3.67-.42-5.47l-.62-5.44-.31-2.72c-.11-.9-.29-1.79-.42-2.69l-.88-5.37q5.4,2.91,10.87,6.2c3.53,2.21,7.05,4.55,10.6,7l.22-.24c.11,1,.25,2,.33,3"/><path class="cls-2" d="M419.88,133.67l-.17.28q-5.5-2.43-10.88-4.5c-3.63-1.37-7.36-2.56-10.95-3.67l1.76,4.68.44,1.17.38,1.19.76,2.39,1.52,4.78,1.28,4.86q2.64,1.14,5.29,2.37c1.71.83,3.43,1.7,5.15,2.59s3.45,1.81,5.19,2.75,3.48,1.93,5.14,2.95l.21-.26c.2,1.23.4,2.47.61,3.7a211.89,211.89,0,0,0,14.3-19.21l-1.55-5.85c-.55-1.95-1-3.91-1.64-5.83l-1.84-5.78c-.32-1-.6-1.93-.95-2.89l-1.07-2.85c-.91,1.83-1.77,3.61-2.75,5.4s-2,3.54-3,5.27c-2,3.46-4,6.79-6.25,10.07"/><path class="cls-2" d="M421.12,112.77q2.29-4.93,4.46-10.16c-.74-1.69-1.62-3.34-2.42-5s-1.63-3.33-2.5-5l-2.72-4.87c-.9-1.62-1.8-3.24-2.81-4.8-.92,3.56-2.12,7.16-3.27,10.61q-.89,2.59-1.81,5.13c-.65,1.7-1.34,3.39-2,5-.55-1.12-1.1-2.24-1.68-3.35l-.11.31q-5.4-1.18-10.64-2.09c-1.73-.31-3.52-.54-5.28-.77s-3.52-.41-5.25-.59l2.44,3.91c.81,1.31,1.51,2.68,2.28,4s1.53,2.66,2.22,4l2,4.14c1.71.37,3.49.74,5.17,1.19s3.4.91,5.12,1.4c3.42,1,7,2,10.32,3.29l.15-.29,1.32,3.5C417.82,119.33,419.58,116.06,421.12,112.77Z"/><path class="cls-2" d="M403.87,81.7c.79-3.19,1.54-6.46,2.22-9.8-.93-1.4-2-2.73-3-4.06l-3.07-4c-2.1-2.61-4.29-5.15-6.46-7.71a186.17,186.17,0,0,1-3,19.77l.06.08-2.34-3.06-.07.33c-3.3-.14-6.66-.13-9.89-.1s-6.5.21-9.7.45c1,1.06,2,2.07,2.87,3.15L374.26,80c1.88,2.13,3.52,4.44,5.27,6.67,3.26,0,6.39.29,9.67.56q2.43.21,4.92.48c1.65.18,3.24.42,4.89.66l.09-.32-.51-.81c.84,1.32,1.66,2.67,2.5,4Q402.56,86.58,403.87,81.7Z"/><path class="cls-2" d="M382.31,65.8C383,60,383.61,54,383.77,47.93l-3.21-3.17-3.31-3c-1.12-1-2.2-2-3.34-3l-3.44-2.89c.15,3,.28,6,.28,9s-.05,6-.15,8.91h0l-2.77-2.52v.33l-4.42.57c-1.48.23-3,.48-4.42.73-2.93.52-5.77,1-8.62,1.68,2,1.63,4,3.34,6,5l5.75,5.25c5.7-.7,11.69-1.29,17.64-1.43l0-.33-.49-.53Z"/><path class="cls-2" d="M349.87,36.84c-.46-5.29-1.24-10.46-2.11-15.83l6.6,4.39L360.8,30q.38,4,.63,8l.22,3.94.1,4c-.94-.82-1.91-1.6-2.89-2.38v.33c-5.31,1-10.41,2.12-15.49,3.54l-2.86-2.06-2.94-1.95-2.94-2c-1-.63-2-1.23-3-1.86,5-1.76,10-3.22,15.22-4.64l0-.32c1,.7,2,1.43,3.06,2.16"/><path class="cls-2" d="M338,29l3.19,2c-.7-4.51-1.49-9.16-2.47-13.74-2-1.13-4-2.3-6-3.4l-6.1-3.21c1.2,4.6,2.33,9,3.25,13.59-1.09-.62-2.18-1.23-3.29-1.79l.07.32c-4.41,1.7-8.7,3.46-12.93,5.41l2.83,1.38c.94.47,1.86,1,2.78,1.46,1.85,1,3.73,1.92,5.53,3q3.22-1.24,6.54-2.43c2.21-.78,4.41-1.49,6.67-2.21Z"/><path class="cls-2" d="M318.36,18.48c-1.87.81-3.71,1.61-5.55,2.46s-3.67,1.73-5.46,2.61c-1.66-.77-3.34-1.48-5-2.18s-3.36-1.43-5.08-2.06c3.54-2,7.09-3.75,10.78-5.58l-.1-.32c1.15.48,2.29,1,3.42,1.52-1.13-3.84-2.4-7.58-3.74-11.4,1.81.77,3.64,1.5,5.44,2.29l5.39,2.43c1.18,3.86,2.23,7.75,3.22,11.56l-3.37-1.64Z"/><path class="cls-2" d="M277.47,2.64c1.12,2.42,2.19,4.82,3.23,7.21,1.62.47,3.22,1,4.83,1.54l2.41.78,2.38.85c2.25-1.32,4.56-2.67,6.87-3.9,1.64.61,3.27,1.23,4.9,1.88q-1.32-3.72-2.74-7.49c-1.65-.65-3.34-1.2-5-1.8S291,.53,289.31,0c-2.31,1.37-4.56,2.69-6.81,4.13"/><path class="cls-2" d="M148.63,125.34H138.19c-2.7,0-4.88,15.07-4.88,33.66s2.18,33.66,4.88,33.66h16a107.65,107.65,0,0,0,7,18.12l-2-.11a6.83,6.83,0,0,0-6.82,6.82v11.42a6.83,6.83,0,0,0,6.82,6.82,3.6,3.6,0,1,1-3.59,3.6h-.12a5,5,0,0,0-4.93-4H133.7a9.63,9.63,0,0,0-9.62,9.61,7.17,7.17,0,0,0,.2,2,323.24,323.24,0,0,0,25.51,60.64,38.44,38.44,0,0,0,26.63,17.95c.26.05,26.25,5,47.24,5h.62c21,0,47-5,47.24-5a38.44,38.44,0,0,0,26.63-17.95,322.84,322.84,0,0,0,25.5-60.64,6.48,6.48,0,0,0,.21-2,9.63,9.63,0,0,0-9.62-9.61H297.4a5,5,0,0,0-4.93,4h-.12a3.59,3.59,0,1,1-3.59-3.6,6.83,6.83,0,0,0,6.82-6.82V217.49a6.83,6.83,0,0,0-6.82-6.82l-1.3.07a124.76,124.76,0,0,0,6.06-18.08h14.93c2.69,0,4.88-15.07,4.88-33.66s-2.19-33.66-4.88-33.66H298.24a76.73,76.73,0,0,0-69.9-59.49V47.28a4.65,4.65,0,1,0-9.3,0V65.81A76.74,76.74,0,0,0,148.63,125.34Zm74.81-19.91A53.59,53.59,0,1,1,169.85,159,53.65,53.65,0,0,1,223.44,105.43Z"/><path class="cls-2" d="M223.44,208.07a49.05,49.05,0,1,0-49.05-49A49,49,0,0,0,223.44,208.07ZM200.12,173l10.21-10.22,9.38,9.37-10.22,10.22a1.88,1.88,0,0,1-2.59,0l-6.78-6.78A1.84,1.84,0,0,1,200.12,173Zm14.07-14.07,9.37-9.38,9.37,9.38-9.37,9.37ZM223.44,193a33.92,33.92,0,0,1-18.15-5.24,7.31,7.31,0,0,0,2.9.6,7.23,7.23,0,0,0,5.15-2.12L223.56,176l10.22,10.22a7.23,7.23,0,0,0,5.15,2.12,7.32,7.32,0,0,0,2.29-.37A33.88,33.88,0,0,1,223.44,193ZM247,175.58l-6.78,6.78a1.86,1.86,0,0,1-2.59,0l-10.22-10.22,9.38-9.37L247,173a1.78,1.78,0,0,1,.54,1.29A1.81,1.81,0,0,1,247,175.58Zm5.68-34.12a34,34,0,0,1,0,34.92,7.36,7.36,0,0,0,.31-2.1,7.23,7.23,0,0,0-2.13-5.14l-10.22-10.22,10.22-10.22a7.27,7.27,0,0,0,1.82-7.24Zm-5.14,2.09a1.82,1.82,0,0,1-.54,1.3l-10.21,10.21-9.38-9.37,10.22-10.22a1.87,1.87,0,0,1,2.59,0l6.78,6.79A1.78,1.78,0,0,1,247.54,143.55Zm-24.1-18.69a33.92,33.92,0,0,1,17.77,5,7.27,7.27,0,0,0-7.43,1.76l-10.22,10.22-10.22-10.22a7.26,7.26,0,0,0-8-1.53A33.87,33.87,0,0,1,223.44,124.86Zm-23.32,17.4,6.78-6.79a1.9,1.9,0,0,1,2.59,0l10.22,10.22-9.38,9.37-10.21-10.21A1.84,1.84,0,0,1,200.12,142.26Zm-5.26-1.86a7.29,7.29,0,0,0,1.4,8.3l10.22,10.22-10.22,10.22a7.31,7.31,0,0,0-1.4,8.31,34,34,0,0,1,0-37Z"/><path class="cls-2" d="M306.57,109.21a14.63,14.63,0,1,0-14.63-14.63A14.63,14.63,0,0,0,306.57,109.21Zm9-18.78a1.38,1.38,0,0,1,0-1.7c.4-.43,1.28-.26,1.79.47a9.28,9.28,0,0,1,0,10.67c-.51.73-1.39.91-1.79.47a1.38,1.38,0,0,1,0-1.7A7.14,7.14,0,0,0,315.54,90.43Zm-1.82-5.24a1,1,0,1,1-1,1A1,1,0,0,1,313.72,85.19Z"/><path class="cls-2" d="M103.79,230.27a14.63,14.63,0,1,0-14.62-14.63A14.63,14.63,0,0,0,103.79,230.27Zm9-18.78a1.4,1.4,0,0,1,0-1.7c.4-.43,1.29-.26,1.8.47a9.28,9.28,0,0,1,0,10.67c-.51.73-1.4.9-1.8.47a1.4,1.4,0,0,1,0-1.7A7.14,7.14,0,0,0,112.77,211.49Zm-1.83-5.24a1,1,0,1,1-1,1A1,1,0,0,1,110.94,206.25Z"/><path class="cls-2" d="M285.89,69.87A8.07,8.07,0,1,0,294,77.94,8.07,8.07,0,0,0,285.89,69.87Zm3.94,4a.57.57,0,1,1,0-1.13.57.57,0,1,1,0,1.13Zm2,7c-.28.4-.77.49-1,.26a.77.77,0,0,1,0-.94,4,4,0,0,0,0-4.53.77.77,0,0,1,0-.94c.22-.24.71-.15,1,.26A5.13,5.13,0,0,1,291.81,80.86Z"/><path class="cls-2" d="M75,190.93a8.07,8.07,0,1,0,8.07-8.07A8.08,8.08,0,0,0,75,190.93Zm13-2.29a.76.76,0,0,1,0-.94c.22-.24.7-.15,1,.26a5.13,5.13,0,0,1,0,5.89c-.29.4-.77.49-1,.25a.76.76,0,0,1,0-.94A3.91,3.91,0,0,0,88.06,188.64Zm-1-2.9a.57.57,0,1,1-.57.57A.58.58,0,0,1,87.06,185.74Z"/><path class="cls-2" d="M111.36,154.61a8.07,8.07,0,1,0,8.07,8.07A8.07,8.07,0,0,0,111.36,154.61Zm4,4a.57.57,0,1,1,.56-.57A.56.56,0,0,1,115.31,158.63Zm1,7.23a.78.78,0,0,1,0-.94,4,4,0,0,0,0-4.53.78.78,0,0,1,0-.94c.22-.24.71-.14,1,.26a5.13,5.13,0,0,1,0,5.89C117,166,116.51,166.1,116.29,165.86Z"/><path class="cls-2" d="M111.36,121.32a8.07,8.07,0,1,0,8.07,8.07A8.07,8.07,0,0,0,111.36,121.32Zm4,4a.57.57,0,1,1,.56-.57A.56.56,0,0,1,115.31,125.34Zm1,7.23a.78.78,0,0,1,0-.94,4,4,0,0,0,0-4.53.78.78,0,0,1,0-.94c.22-.24.71-.15,1,.26a5.13,5.13,0,0,1,0,5.89C117,132.71,116.51,132.8,116.29,132.57Z"/><path class="cls-2" d="M305.05,66.84a4,4,0,1,0-4,4A4,4,0,0,0,305.05,66.84ZM303.5,65.7a.36.36,0,0,1,0-.47c.11-.12.35-.08.49.13a2.56,2.56,0,0,1,0,2.94c-.14.2-.38.25-.49.13a.36.36,0,0,1,0-.47A2,2,0,0,0,303.5,65.7ZM303,64.25a.29.29,0,1,1-.28.28A.29.29,0,0,1,303,64.25Z"/><path class="cls-2" d="M87.15,168.73a4,4,0,1,0-4,4A4,4,0,0,0,87.15,168.73Zm-1.56-1.14a.39.39,0,0,1,0-.47c.11-.12.35-.07.49.13a2.56,2.56,0,0,1,0,2.94c-.14.2-.38.25-.49.13a.39.39,0,0,1,0-.47A2,2,0,0,0,85.59,167.59Zm-.5-1.45a.29.29,0,0,1,0,.57.29.29,0,1,1,0-.57Z"/><path class="cls-2" d="M99.25,158.64a4,4,0,1,0-4-4A4,4,0,0,0,99.25,158.64Zm2.48-5.18a.39.39,0,0,1,0-.47c.11-.12.35-.07.5.13a2.57,2.57,0,0,1,0,2.95c-.15.2-.39.25-.5.13a.39.39,0,0,1,0-.47A2,2,0,0,0,101.73,153.46Zm-.5-1.44a.28.28,0,1,1-.29.28A.28.28,0,0,1,101.23,152Z"/><path class="cls-2" d="M99.25,181.85a4,4,0,1,0-4-4A4,4,0,0,0,99.25,181.85Zm2.48-5.18a.39.39,0,0,1,0-.47c.11-.12.35-.08.5.13a2.56,2.56,0,0,1,0,2.94c-.15.2-.39.25-.5.13a.39.39,0,0,1,0-.47A2,2,0,0,0,101.73,176.67Zm-.5-1.45a.29.29,0,0,1,0,.57.29.29,0,1,1,0-.57Z"/><path class="cls-2" d="M261.1,361.43H186.63l-17.24,29.85h-3.14l18.23,31.57h78.76l18.23-31.57h-3.14Zm-60.16,55.91h-9.59l-15-26.06h2.59l14.22-24.65h9.07L188,391.28H185.9Zm27.75-26.06-15.05,26.06h-9.59l15-26.06h.26l14.22-24.65h9.07l-14.23,24.65Zm27.74,26.06h-9.59l15-26.06h-2.08l-14.22-24.65h9.06l14.23,24.65h2.59Z"/><polygon points="202.19 366.63 193.13 366.63 178.9 391.28 176.31 391.28 191.35 417.34 200.94 417.34 185.9 391.28 187.96 391.28 202.19 366.63"/><polygon points="254.65 366.63 245.59 366.63 259.81 391.28 261.89 391.28 246.84 417.34 256.43 417.34 271.48 391.28 268.88 391.28 254.65 366.63"/><polygon points="233.58 366.63 219.36 391.28 219.1 391.28 204.05 417.34 213.64 417.34 228.69 391.28 228.42 391.28 242.65 366.63 233.58 366.63"/></g></g></svg>