<?xml version="1.0" encoding="UTF-8"?>
<!DOCTYPE svg PUBLIC "-//W3C//DTD SVG 1.1//EN" "http://www.w3.org/Graphics/SVG/1.1/DTD/svg11.dtd">
<!-- Creator: CorelDRAW X7 -->
<svg xmlns="http://www.w3.org/2000/svg" xml:space="preserve" width="6.37437in" height="6in" version="1.1" style="shape-rendering:geometricPrecision; text-rendering:geometricPrecision; image-rendering:optimizeQuality; fill-rule:evenodd; clip-rule:evenodd"
viewBox="0 0 5911 5564"
 xmlns:xlink="http://www.w3.org/1999/xlink">
 <defs>
  <style type="text/css">
   <![CDATA[
    .fil0 {fill:none;fill-rule:nonzero}
    .fil1 {fill:#D6BA1C;fill-rule:nonzero}
   ]]>
  </style>
 </defs>
 <g id="Layer_x0020_1">
  <metadata id="CorelCorpID_0Corel-Layer"/>
  <g id="_1905414242304">
   <g>
    <path class="fil0" d="M2038 106c30,-10 60,-21 91,-31 -31,10 -61,21 -91,31z"/>
   </g>
   <g>
    <path class="fil0" d="M1496 361l-21 13c8,-5 15,-9 23,-14 -1,1 -1,1 -2,1z"/>
   </g>
   <g>
    <path class="fil0" d="M5624 2353l5 65c-1,-9 -2,-19 -2,-28l-3 -37z"/>
   </g>
   <g>
    <polygon class="fil0" points="5567,1948 5559,1913 5570,1963 "/>
   </g>
   <g>
    <path class="fil0" d="M5582 2019l-2 -6c1,3 2,5 2,8 0,-1 0,-1 0,-2z"/>
   </g>
   <g>
    <path class="fil0" d="M5206 1099c-1,0 -1,-1 -1,-1l-35 -51c-2,-2 -4,-5 -6,-8 4,6 9,12 13,18l29 42z"/>
   </g>
   <g>
    <path class="fil0" d="M4949 785c-14,-14 -28,-28 -42,-41 2,2 5,4 7,6l35 35z"/>
   </g>
   <g>
    <path class="fil0" d="M5392 1425l-6 -12c4,8 8,16 11,24 -1,-4 -3,-8 -5,-12z"/>
   </g>
   <g>
    <path class="fil0" d="M3776 75c30,10 60,21 91,31 -31,-10 -61,-21 -91,-31z"/>
   </g>
   <g>
    <path class="fil0" d="M5433 1520c-4,-11 -9,-22 -14,-33 -5,-11 -9,-22 -14,-33l21 49 7 17z"/>
   </g>
   <g>
    <path class="fil0" d="M5555 1894l-5 -17 -2 -10c3,11 6,22 8,32l-1 -5z"/>
   </g>
   <g>
    <path class="fil0" d="M4409 361c-1,0 -2,0 -2,-1 7,5 15,9 22,14l-20 -13z"/>
   </g>
   <g>
    <path class="fil0" d="M512 1425c-1,4 -3,8 -5,12 4,-8 7,-16 11,-24l-6 12z"/>
   </g>
   <g>
    <path class="fil0" d="M700 1098c0,0 -1,0 -1,1l15 -22 -14 21z"/>
   </g>
   <g>
    <path class="fil0" d="M485 1487c-1,3 -3,7 -4,11l19 -44c-5,11 -10,22 -15,33z"/>
   </g>
   <g>
    <path class="fil0" d="M735 1047l-7 10c4,-6 8,-12 13,-18 -2,3 -4,6 -6,8z"/>
   </g>
   <g>
    <path class="fil0" d="M323 2019c0,1 0,1 -1,2 1,-3 2,-5 2,-8l-1 6z"/>
   </g>
   <g>
    <path class="fil0" d="M5614 2949l1 -15c0,6 -1,13 -2,19 1,-1 1,-3 1,-4z"/>
   </g>
   <g>
    <polygon class="fil0" points="346,1912 338,1948 335,1961 346,1912 "/>
   </g>
   <g>
    <path class="fil0" d="M354 1877l-5 17 -1 5c3,-10 6,-21 9,-32l-3 10z"/>
   </g>
   <g>
    <path class="fil0" d="M5603 3033c2,-15 4,-31 6,-46l-9 68c1,-7 2,-15 3,-22z"/>
   </g>
   <g>
    <path class="fil0" d="M5590 3116l7 -41c1,-1 1,-2 1,-3l-14 79 6 -35z"/>
   </g>
   <g>
    <path class="fil0" d="M997 744c-14,13 -27,27 -41,41 0,0 0,0 0,0l35 -35c2,-2 4,-4 6,-6z"/>
   </g>
   <path class="fil1" d="M2019 5125c-40,-150 -73,-300 -98,-448 -117,-66 -230,-135 -336,-210 7,148 25,300 52,453l-4 1c25,15 49,29 74,43 -10,-6 -21,-12 -31,-18 -146,50 -296,93 -453,127 131,89 265,170 401,244 150,-51 294,-108 435,-169 -15,-7 -29,-14 -44,-22l4 -1z"/>
   <path class="fil1" d="M1378 4755l4 -1c-15,-145 -19,-289 -12,-429 -92,-79 -178,-162 -255,-252 -30,135 -47,278 -52,425l-4 0c15,15 31,29 47,43 -3,-3 -7,-7 -11,-10 -144,19 -293,26 -447,19 104,115 216,221 333,317 151,-18 297,-47 437,-83 -13,-10 -27,-19 -40,-29z"/>
   <path class="fil1" d="M891 4328c-11,-12 -21,-25 -32,-37l4 0c20,-136 52,-268 94,-392 -63,-91 -118,-188 -164,-289 -16,29 -31,58 -45,87 -14,30 -29,61 -42,91 -13,31 -25,63 -37,95 -13,32 -23,64 -34,97l-4 -1c16,26 32,51 49,77 -8,-12 -16,-23 -23,-35 -34,-5 -67,-11 -102,-17 -17,-4 -34,-7 -51,-11l-51 -11c-34,-9 -69,-17 -103,-27 -34,-10 -69,-21 -103,-32 64,131 139,257 224,376 142,23 284,31 420,29z"/>
   <path class="fil1" d="M432 3757c31,10 61,19 93,27 -8,-15 -14,-29 -21,-44l4 1c13,-30 27,-59 41,-87 15,-29 30,-57 46,-84 30,-55 64,-109 98,-159 -33,-101 -60,-205 -79,-311 -22,23 -42,47 -61,71 -20,24 -40,48 -60,74 -19,25 -38,50 -56,76 -19,26 -38,53 -55,80l-4 -2c4,16 9,32 14,47 -29,-12 -59,-26 -88,-40 -29,-14 -58,-29 -87,-45 -59,-31 -114,-65 -172,-100 26,131 63,261 108,389l46 21c15,6 31,13 47,19 31,13 62,24 92,36 31,11 63,21 94,31z"/>
   <path class="fil1" d="M252 3154c26,16 51,31 78,46 -4,-14 -6,-28 -8,-42l-2 -7 4 3c76,-95 156,-182 241,-263l-7 -77 -4 -78c-2,-25 -3,-51 -3,-77 0,-26 -1,-52 -1,-78 -46,36 -91,74 -136,113 -45,40 -88,81 -132,124l-3 -3c1,16 2,33 4,49 -97,-71 -192,-148 -283,-232l2 92 5 91 2 46 5 46c3,31 5,61 9,92 50,37 100,73 151,106 26,17 52,33 78,49z"/>
   <path class="fil1" d="M283 2311c-39,-40 -76,-81 -113,-124 -19,-21 -38,-43 -56,-66 -18,-22 -36,-44 -53,-67 -4,28 -10,56 -13,85l-10 85 -5 42c-1,14 -2,29 -3,43l-6 85c39,41 82,81 122,120 42,39 82,76 126,112l-1 -39 0 -10 4 3c43,-37 87,-72 130,-106l33 -25 33 -25c23,-16 45,-32 68,-47 2,-24 2,-48 5,-72l8 -72 4 -36c2,-11 4,-23 6,-35l12 -71c-48,26 -96,53 -143,82 -47,29 -93,60 -140,92l-3 -3c-1,13 -3,26 -4,39l-1 10z"/>
   <path class="fil1" d="M373 1806c-30,-43 -56,-87 -82,-132 -13,-23 -27,-46 -39,-70 -13,-23 -25,-47 -37,-71l-14 38c-4,12 -8,25 -12,38l-24 76c-9,25 -15,51 -22,77l-20 77c60,89 120,173 188,252 3,-16 5,-32 8,-48l3 3c21,-13 44,-26 67,-39 23,-12 46,-24 68,-36 23,-12 46,-23 68,-34 24,-11 47,-21 70,-31l17 -64 20 -63 10 -31 5 -16 5 -15 24 -62c-48,15 -97,30 -144,48 -48,18 -95,38 -144,59l-2 -3 -13 47z"/>
   <path class="fil1" d="M436 1611l17 -46 2 4c44,-17 91,-30 136,-43 22,-7 45,-13 67,-19 22,-6 46,-11 68,-15l27 -55c9,-18 20,-35 29,-53 10,-18 20,-36 30,-53l32 -51c-22,2 -45,5 -69,8 -23,2 -47,6 -69,10 -46,8 -93,17 -140,27l-2 -4c-7,15 -15,29 -22,44 -9,-22 -18,-44 -27,-66 -8,-23 -16,-45 -23,-68 -15,-45 -31,-93 -43,-139 -14,20 -25,41 -37,63l-36 64c-12,21 -22,43 -33,65 -11,22 -22,44 -32,66 19,46 39,90 59,134 20,43 43,86 66,127z"/>
   <path class="fil1" d="M633 1200c11,-17 22,-35 33,-52l-6 11 1 4c21,-3 42,-7 64,-9 22,-2 43,-4 65,-6 43,-4 84,-7 127,-8 23,-29 45,-59 69,-87l36 -43c13,-14 26,-28 38,-42 -42,-3 -85,-5 -127,-5 -43,-1 -87,-1 -131,1l0 -5 -31 41c0,-1 0,-1 1,-1 -19,-85 -30,-171 -40,-260 -28,33 -57,67 -85,101l-40 53c-14,17 -27,35 -39,53 9,44 18,87 29,129 11,43 24,85 36,125z"/>
   <path class="fil1" d="M920 823c-2,2 -4,4 -6,7l0 4c79,2 157,9 232,19l76 -69c26,-22 52,-45 79,-66 -38,-9 -75,-15 -114,-22 -19,-4 -38,-7 -58,-10l-58 -7 0 -5 -36 34 0 0c-2,-39 -2,-78 -2,-118 0,-39 1,-78 3,-118l-45 38c-15,12 -29,26 -44,39l-44 40 -42 42c2,79 10,159 19,235 14,-15 27,-29 40,-43z"/>
   <path class="fil1" d="M1189 578c70,13 137,28 204,47l37 -27 39 -26 39 -26c13,-8 26,-16 39,-24 -65,-24 -131,-43 -200,-61l1 -5c-14,10 -27,19 -41,29 6,-70 17,-138 28,-209l-87 58 -84 61c-4,36 -7,71 -9,106l-3 52 -1 52c12,-11 25,-21 38,-31l0 4z"/>
   <path class="fil1" d="M1463 385c30,10 59,19 88,29 29,11 58,22 86,32 24,-13 48,-26 73,-39 12,-6 24,-13 36,-19l38 -18c-56,-26 -112,-49 -171,-71l1 -5c-14,8 -29,16 -43,24 12,-60 27,-118 43,-179l-80 42c-27,15 -53,30 -80,45 -13,60 -23,122 -32,181l42 -26 -1 4z"/>
   <path class="fil1" d="M1722 243c25,11 49,21 73,32 24,12 48,23 72,35 22,-10 44,-20 66,-29 22,-9 44,-19 67,-27 -47,-26 -93,-49 -142,-73l1 -5c-15,7 -30,14 -45,20 15,-50 32,-99 50,-150 -24,11 -48,20 -72,31l-71 32c-16,50 -29,102 -42,152 14,-8 29,-15 44,-22l-1 4z"/>
   <path class="fil1" d="M2194 54c-30,-19 -59,-36 -90,-54 -22,7 -44,15 -66,22 -22,8 -44,16 -66,24 -12,33 -24,66 -36,99 21,-9 43,-17 64,-25 31,16 61,34 91,51l31 -11 32 -10c21,-7 42,-14 63,-20 14,-32 28,-63 43,-95l-66 19z"/>
   <path class="fil1" d="M3892 5125c39,-150 73,-300 98,-448 117,-66 230,-135 336,-210 -7,148 -25,300 -53,453l5 1c-25,15 -50,29 -74,43 10,-6 21,-12 31,-18 146,50 296,93 452,127 -130,89 -265,170 -400,244 -150,-51 -294,-108 -435,-169 14,-7 29,-14 44,-22l-4 -1z"/>
   <path class="fil1" d="M4533 4755l-4 -1c14,-145 19,-289 12,-429 92,-79 178,-162 255,-252 29,135 46,278 52,425l4 0c-16,15 -32,29 -48,43 4,-3 8,-7 11,-10 145,19 294,26 447,19 -103,115 -215,221 -332,317 -151,-18 -297,-47 -437,-83 13,-10 26,-19 40,-29z"/>
   <path class="fil1" d="M5019 4328c11,-12 22,-25 33,-37l-4 0c-20,-136 -52,-268 -94,-392 63,-91 118,-188 164,-289 16,29 31,58 45,87 14,30 29,61 41,91 13,31 26,63 38,95 12,32 22,64 33,97l5 -1c-16,26 -33,51 -49,77 7,-12 15,-23 23,-35 33,-5 67,-11 101,-17 17,-4 35,-7 52,-11l51 -11c34,-9 69,-17 103,-27 34,-10 68,-21 103,-32 -64,131 -139,257 -224,376 -143,23 -284,31 -421,29z"/>
   <path class="fil1" d="M5479 3757c-31,10 -61,19 -93,27 7,-15 14,-29 21,-44l-4 1c-14,-30 -28,-59 -42,-87 -14,-29 -30,-57 -45,-84 -30,-55 -65,-109 -98,-159 33,-101 59,-205 79,-311 21,23 41,47 61,71 20,24 40,48 60,74 19,25 37,50 56,76 18,26 38,53 55,80l4 -2c-5,16 -9,32 -14,47 29,-12 58,-26 88,-40 28,-14 57,-29 86,-45 59,-31 115,-65 173,-100 -26,131 -63,261 -109,389l-45 21c-16,6 -32,13 -47,19 -31,13 -62,24 -93,36 -30,11 -62,21 -93,31z"/>
   <path class="fil1" d="M5736 3105c52,-33 101,-69 152,-106 4,-31 6,-61 9,-92l4 -46 3 -46 5 -91 2 -92c-92,84 -186,161 -283,232 2,-16 3,-33 4,-49l-4 3c-43,-43 -86,-84 -131,-124 -46,-39 -90,-77 -136,-113 0,26 -1,52 -1,78 -1,26 -1,52 -3,77l-4 78 -7 77c84,81 165,168 241,263l3 -3 -1 7c-2,14 -5,28 -8,42 27,-15 52,-30 78,-46 26,-16 51,-32 77,-49z"/>
   <path class="fil1" d="M5628 2311c39,-40 75,-81 113,-124 19,-21 38,-43 56,-66 18,-22 35,-44 53,-67 4,28 10,56 13,85l10 85 4 42c2,14 3,29 4,43l5 85c-38,41 -81,81 -122,120 -41,39 -82,76 -125,112l0 -39 0 -10 -3 3c-43,-37 -87,-72 -130,-106l-33 -25 -34 -25c-22,-16 -45,-32 -67,-47 -2,-24 -2,-48 -5,-72l-9 -72 -4 -36c-1,-11 -3,-23 -5,-35l-12 -71c48,26 95,53 143,82 47,29 93,60 140,92l3 -3c1,13 3,26 4,39l1 10z"/>
   <path class="fil1" d="M5525 1759l-3 3c-48,-21 -96,-41 -143,-59 -48,-18 -97,-33 -144,-48l23 62 6 15 5 16 10 31 20 63 17 64c23,10 46,20 69,31 23,11 46,22 68,34 23,12 46,24 69,36 23,13 45,26 67,39l3 -3c3,16 5,32 8,48 67,-79 128,-163 188,-252l-20 -77c-7,-26 -13,-52 -22,-77l-24 -76c-4,-13 -8,-26 -13,-38l-14 -38c-12,24 -23,48 -36,71 -13,24 -26,47 -39,70 -26,45 -53,89 -82,132l-13 -47z"/>
   <path class="fil1" d="M5541 1484c20,-44 40,-88 59,-134 -10,-22 -22,-44 -32,-66 -11,-22 -22,-44 -33,-65l-36 -64c-12,-22 -24,-43 -37,-63 -12,46 -28,94 -43,139 -8,23 -16,45 -24,68 -8,22 -17,44 -26,66 -8,-15 -15,-29 -23,-44l-1 4c-47,-10 -94,-19 -140,-27 -23,-4 -46,-8 -70,-10 -23,-3 -46,-6 -69,-8l33 51c10,17 19,35 29,53 10,18 21,35 30,53l27 55c22,4 45,9 68,15 22,6 44,12 67,19 45,13 92,26 136,43l2 -4 17 46c22,-41 46,-84 66,-127z"/>
   <path class="fil1" d="M5314 1075c10,-42 20,-85 29,-129 -12,-18 -26,-36 -39,-53l-41 -53c-27,-34 -56,-68 -85,-101 -9,89 -21,175 -39,260 0,0 1,0 1,1l-31 -41 -1 5c-43,-2 -87,-2 -130,-1 -42,0 -85,2 -128,5 13,14 26,28 38,42l36 43c25,28 47,58 70,87 43,1 84,4 127,8 21,2 43,4 65,6 21,2 42,6 64,9l1 -4 -7 -11c12,17 22,35 33,52 13,-40 26,-82 37,-125z"/>
   <path class="fil1" d="M5030 866c10,-76 17,-156 19,-235l-42 -42 -43 -40c-15,-13 -29,-27 -44,-39l-45 -38c1,40 3,79 3,118 0,40 -1,79 -2,118l0 0 -36 -34 0 5 -59 7c-19,3 -38,6 -58,10 -38,7 -76,13 -113,22 27,21 52,44 79,66l75 69c75,-10 154,-17 232,-19l1 -4c-2,-3 -4,-5 -7,-7 14,14 27,28 40,43z"/>
   <path class="fil1" d="M4603 485c-6,-70 -16,-138 -27,-209l86 58 85 61c4,36 6,71 9,106l2 52 2 52c-13,-11 -25,-21 -38,-31l0 4c-70,13 -137,28 -204,47l-38 -27 -38 -26 -39 -26c-13,-8 -26,-16 -40,-24 66,-24 132,-43 201,-61l-1 -5c14,10 27,19 40,29z"/>
   <path class="fil1" d="M4447 381l42 26c-9,-59 -20,-121 -33,-181 -26,-15 -52,-30 -79,-45l-80 -42c16,61 31,119 43,179 -15,-8 -29,-16 -44,-24l1 5c-58,22 -114,45 -170,71l37 18c13,6 25,13 37,19 24,13 49,26 73,39 28,-10 57,-21 86,-32 29,-10 58,-19 87,-29l0 -4z"/>
   <path class="fil1" d="M4189 243c-25,11 -49,21 -73,32 -24,12 -48,23 -72,35 -22,-10 -44,-20 -66,-29 -22,-9 -44,-19 -67,-27 46,-26 93,-49 142,-73l-2 -5c16,7 31,14 45,20 -14,-50 -31,-99 -49,-150 24,11 48,20 72,31l71 32c15,50 29,102 42,152 -15,-8 -29,-15 -44,-22l1 4z"/>
   <path class="fil1" d="M3651 35c14,32 29,63 42,95 22,6 43,13 64,20l32 10 31 11c30,-17 60,-35 90,-51 22,8 43,16 65,25 -12,-33 -24,-66 -36,-99 -22,-8 -44,-16 -66,-24 -22,-7 -44,-15 -66,-22 -31,18 -60,35 -90,54l-66 -19z"/>
   <path class="fil1" d="M1956 1649l-138 0c-35,0 -64,198 -64,443 0,245 29,443 64,443l211 0c26,87 57,169 92,238l-27 -1c-49,0 -89,40 -89,90l0 150c0,49 40,90 89,90 26,0 48,21 48,47 0,26 -22,47 -48,47 -26,0 -47,-21 -47,-47l-1 0c-7,-30 -33,-53 -65,-53l-222 0c-70,0 -125,56 -126,127 -1,17 2,26 2,26 132,440 334,794 336,798 77,126 205,212 350,236 4,1 346,66 622,67l0 0 2 0 4 0 2 0 0 0c276,-1 618,-66 622,-67 145,-24 273,-110 350,-236 2,-4 204,-358 335,-798 1,0 3,-9 3,-26 -1,-71 -57,-127 -126,-127l-222 0c-32,0 -58,23 -65,53l-1 0c0,26 -22,47 -48,47 -26,0 -47,-21 -47,-47 0,-26 21,-47 47,-47 50,0 90,-41 90,-90l0 -150c0,-50 -40,-90 -90,-90l-17 1c31,-72 58,-153 80,-238l196 0c36,0 65,-198 65,-443 0,-245 -29,-443 -65,-443l-134 0c-97,-429 -468,-754 -920,-783l0 -244c0,-34 -27,-61 -61,-61 -33,0 -61,27 -61,61l0 244c-455,26 -828,352 -926,783zm984 -262l0 0c389,0 705,317 705,705 0,389 -316,705 -705,705 -389,0 -705,-316 -705,-705 0,-388 316,-705 705,-705z"/>
   <path class="fil1" d="M2940 2738c356,0 645,-289 645,-646 0,-356 -289,-645 -645,-645 -357,0 -645,289 -645,645 0,357 288,646 645,646zm-307 -462l0 0 134 -134 124 123 -135 134c-9,9 -25,9 -34,0l-89 -89c-9,-9 -9,-25 0,-34zm185 -185l0 0 123 -123 124 123 -124 123 -123 -123zm122 448l0 0c-88,0 -170,-25 -239,-69 12,5 25,8 38,8 26,0 50,-10 68,-28l134 -134 135 134c18,18 42,28 68,28 10,0 20,-2 30,-5 -68,42 -148,66 -234,66zm310 -229l0 0 -89 89c-10,10 -25,10 -34,0l-135 -134 124 -123 134 134c4,5 7,11 7,17 0,7 -3,13 -7,17zm75 -449l0 0c40,67 63,146 63,230 0,84 -23,163 -63,230 2,-9 4,-18 4,-28 0,-26 -10,-50 -28,-68l-135 -134 135 -134c18,-19 28,-43 28,-68 0,-10 -2,-19 -4,-28zm-68 28l0 0c0,6 -3,12 -7,17l-134 134 -124 -123 135 -135c4,-4 10,-6 17,-6 6,0 12,2 17,6l89 90c4,4 7,10 7,17zm-317 -246l0 0c86,0 166,24 234,66 -10,-3 -20,-5 -30,-5 -26,0 -50,10 -68,28l-135 134 -134 -134c-18,-18 -42,-28 -68,-28 -13,0 -26,3 -38,8 69,-44 151,-69 239,-69zm-307 229l0 0 89 -90c9,-9 25,-9 34,0l135 135 -124 123 -134 -134c-9,-9 -9,-25 0,-34zm-69 -25l0 0c-6,13 -10,27 -10,42 0,25 10,49 28,68l135 134 -135 134c-18,18 -28,42 -28,68 0,15 4,29 10,42 -46,-70 -72,-154 -72,-244 0,-90 26,-174 72,-244z"/>
   <path class="fil1" d="M4034 1437c106,0 192,-86 192,-193 0,-106 -86,-192 -192,-192 -107,0 -193,86 -193,192 0,107 86,193 193,193zm118 -247l0 0c-5,-7 -6,-17 -1,-23 6,-5 17,-3 24,7 29,42 29,98 0,140 -7,10 -18,12 -24,6 -5,-5 -4,-15 1,-22 22,-32 22,-76 0,-108zm-24 -69l0 0c7,0 13,6 13,13 0,8 -6,14 -13,14 -8,0 -14,-6 -14,-14 0,-7 6,-13 14,-13z"/>
   <path class="fil1" d="M1366 3030c106,0 192,-86 192,-193 0,-106 -86,-192 -192,-192 -107,0 -193,86 -193,192 0,107 86,193 193,193zm118 -247l0 0c-5,-7 -6,-17 -1,-23 6,-5 17,-3 24,6 29,42 29,99 0,141 -7,10 -18,12 -24,6 -5,-6 -4,-15 1,-22 22,-33 22,-76 0,-108zm-24 -69l0 0c7,0 13,6 13,13 0,8 -6,14 -13,14 -8,0 -14,-6 -14,-14 0,-7 6,-13 14,-13z"/>
   <path class="fil1" d="M3762 919c-59,0 -107,48 -107,106 0,59 48,107 107,107 58,0 106,-48 106,-107 0,-58 -48,-106 -106,-106zm51 53l0 0c-4,0 -7,-3 -7,-7 0,-4 3,-8 7,-8 5,0 8,4 8,8 0,4 -3,7 -8,7zm26 92l0 0c-3,5 -10,6 -13,3 -3,-3 -2,-8 1,-12 12,-18 12,-42 0,-60 -3,-4 -4,-9 -1,-12 3,-3 10,-2 13,3 17,24 17,55 0,78z"/>
   <path class="fil1" d="M987 2512c0,59 48,106 107,106 58,0 106,-47 106,-106 0,-59 -48,-106 -106,-106 -59,0 -107,47 -107,106zm172 -30l0 0c-3,-4 -3,-9 -1,-12 3,-4 10,-2 13,3 17,23 17,54 0,78 -3,5 -10,6 -13,3 -2,-3 -2,-9 1,-12 12,-18 12,-42 0,-60zm-14 -38l0 0c5,0 8,3 8,7 0,5 -3,8 -8,8 -4,0 -7,-3 -7,-8 0,-4 3,-7 7,-7z"/>
   <path class="fil1" d="M1465 2034c-58,0 -106,48 -106,106 0,59 48,107 106,107 59,0 106,-48 106,-107 0,-58 -47,-106 -106,-106zm52 53l0 0c-4,0 -7,-3 -7,-7 0,-4 3,-8 7,-8 4,0 8,4 8,8 0,4 -4,7 -8,7zm13 95l0 0c-3,-3 -2,-8 0,-12 13,-18 13,-42 0,-60 -2,-4 -3,-9 0,-12 3,-3 9,-2 13,3 16,24 16,55 0,78 -4,5 -10,6 -13,3z"/>
   <path class="fil1" d="M1465 1596c-58,0 -106,48 -106,106 0,59 48,107 106,107 59,0 106,-48 106,-107 0,-58 -47,-106 -106,-106zm52 53l0 0c-4,0 -7,-3 -7,-7 0,-4 3,-8 7,-8 4,0 8,4 8,8 0,4 -4,7 -8,7zm13 95l0 0c-3,-3 -2,-8 0,-12 13,-18 13,-42 0,-60 -2,-4 -3,-9 0,-12 3,-3 9,-2 13,3 16,24 16,55 0,78 -4,5 -10,6 -13,3z"/>
   <path class="fil1" d="M4014 879c0,-29 -24,-53 -53,-53 -30,0 -53,24 -53,53 0,30 23,54 53,54 29,0 53,-24 53,-54zm-21 -15l0 0c-1,-2 -1,-4 0,-6 2,-1 5,-1 7,2 8,11 8,27 0,39 -2,2 -5,3 -7,1 -1,-1 -1,-4 0,-6 6,-9 6,-21 0,-30zm-6 -19l0 0c2,0 3,2 3,4 0,2 -1,4 -3,4 -2,0 -4,-2 -4,-4 0,-2 2,-4 4,-4z"/>
   <path class="fil1" d="M1147 2220c0,-29 -24,-53 -53,-53 -30,0 -54,24 -54,53 0,29 24,53 54,53 29,0 53,-24 53,-53zm-21 -15l0 0c-1,-2 -1,-5 0,-6 1,-2 5,-1 7,2 8,11 8,27 0,38 -2,3 -6,4 -7,2 -1,-2 -1,-4 0,-6 6,-9 6,-21 0,-30zm-6 -19l0 0c2,0 3,2 3,4 0,2 -1,3 -3,3 -3,0 -4,-1 -4,-3 0,-2 1,-4 4,-4z"/>
   <path class="fil1" d="M1306 2087c29,0 53,-23 53,-53 0,-29 -24,-53 -53,-53 -29,0 -53,24 -53,53 0,30 24,53 53,53zm33 -68l0 0c-2,-2 -2,-4 -1,-6 2,-2 5,-1 7,2 8,11 8,27 0,38 -2,3 -5,4 -7,2 -1,-1 -1,-4 1,-6 6,-9 6,-21 0,-30zm-7 -19l0 0c2,0 4,2 4,4 0,2 -2,4 -4,4 -2,0 -4,-2 -4,-4 0,-2 2,-4 4,-4z"/>
   <path class="fil1" d="M1306 2393c29,0 53,-24 53,-53 0,-30 -24,-54 -53,-54 -29,0 -53,24 -53,54 0,29 24,53 53,53zm33 -69l0 0c-2,-1 -2,-4 -1,-6 2,-1 5,-1 7,2 8,12 8,27 0,39 -2,2 -5,3 -7,1 -1,-1 -1,-4 1,-6 6,-9 6,-21 0,-30zm-7 -19l0 0c2,0 4,2 4,4 0,2 -2,4 -4,4 -2,0 -4,-2 -4,-4 0,-2 2,-4 4,-4z"/>
   <path class="fil1" d="M3435 4755l-979 0 -227 393 -42 0 240 416 1037 0 239 -416 -41 0 -227 -393zm-791 736l0 0 -126 0 -198 -343 34 0 187 -324 119 0 -187 324 -27 0 198 343zm365 -343l0 0 -198 343 -126 0 198 -343 3 0 187 -324 120 0 -188 324 4 0zm365 343l0 0 -126 0 198 -343 -28 0 -187 -324 120 0 187 324 34 0 -198 343z"/>
  </g>
 </g>
</svg>
