<?xml version="1.0" encoding="UTF-8"?>
<!DOCTYPE svg PUBLIC "-//W3C//DTD SVG 1.1//EN" "http://www.w3.org/Graphics/SVG/1.1/DTD/svg11.dtd">
<!-- Creator: CorelDRAW X7 -->
<svg xmlns="http://www.w3.org/2000/svg" xml:space="preserve" width="6.00313in" height="5.65075in" version="1.1" style="shape-rendering:geometricPrecision; text-rendering:geometricPrecision; image-rendering:optimizeQuality; fill-rule:evenodd; clip-rule:evenodd"
viewBox="0 0 6003 5650"
 xmlns:xlink="http://www.w3.org/1999/xlink">
 <defs>
  <style type="text/css">
   <![CDATA[
    .str0 {stroke:white;stroke-width:2.99982}
    .fil0 {fill:white;fill-rule:nonzero}
   ]]>
  </style>
 </defs>
 <g id="Layer_x0020_1">
  <metadata id="CorelCorpID_0Corel-Layer"/>
  <g id="_2260806485264">
   <g>
    <path class="fil0 str0" d="M2070 110c31,-11 61,-22 92,-32 -31,10 -61,21 -92,32z"/>
   </g>
   <g>
    <path class="fil0 str0" d="M1520 368l-21 13c8,-4 15,-9 23,-14 -1,1 -1,1 -2,1z"/>
   </g>
   <g>
    <path class="fil0 str0" d="M5710 2390l5 66c-1,-9 -1,-19 -2,-29l-3 -37z"/>
   </g>
   <g>
    <polygon class="fil0 str0" points="5652,1979 5644,1943 5655,1994 "/>
   </g>
   <g>
    <path class="fil0 str0" d="M5667 2051l-1 -6c1,3 1,5 2,8 0,0 -1,-1 -1,-2z"/>
   </g>
   <g>
    <path class="fil0 str0" d="M5285 1117c0,0 0,-1 0,-1l-36 -51c-2,-3 -4,-6 -6,-9 4,6 9,12 13,19l29 42z"/>
   </g>
   <g>
    <path class="fil0 str0" d="M5025 798c-14,-14 -28,-28 -42,-42 2,3 4,5 6,7l36 35z"/>
   </g>
   <g>
    <path class="fil0 str0" d="M5475 1448l-6 -12c4,8 8,16 11,24 -2,-4 -3,-8 -5,-12z"/>
   </g>
   <g>
    <path class="fil0 str0" d="M3834 78c31,10 62,21 92,32 -30,-11 -61,-22 -92,-32z"/>
   </g>
   <g>
    <path class="fil0 str0" d="M5517 1544c-5,-11 -10,-22 -15,-33 -5,-12 -10,-23 -14,-34l21 50 8 17z"/>
   </g>
   <g>
    <path class="fil0 str0" d="M5640 1925l-4 -18 -3 -10c3,11 6,22 8,33l-1 -5z"/>
   </g>
   <g>
    <path class="fil0 str0" d="M4477 368c-1,0 -2,0 -3,-1 8,5 16,10 23,14l-20 -13z"/>
   </g>
   <g>
    <path class="fil0 str0" d="M522 1448c-2,4 -4,8 -6,12 4,-8 8,-16 12,-24l-6 12z"/>
   </g>
   <g>
    <path class="fil0 str0" d="M712 1116c0,0 -1,1 -1,1l16 -22 -15 21z"/>
   </g>
   <g>
    <path class="fil0 str0" d="M494 1511c-1,3 -3,7 -5,11l20 -45c-5,11 -10,22 -15,34z"/>
   </g>
   <g>
    <path class="fil0 str0" d="M747 1065l-7 10c5,-7 9,-13 14,-19 -3,3 -5,6 -7,9z"/>
   </g>
   <g>
    <path class="fil0 str0" d="M329 2051c0,1 0,2 0,2 0,-3 1,-5 2,-8l-2 6z"/>
   </g>
   <g>
    <path class="fil0 str0" d="M5700 2994l2 -15c-1,7 -2,14 -2,20 0,-1 0,-3 0,-5z"/>
   </g>
   <g>
    <polygon class="fil0 str0" points="352,1943 345,1979 342,1992 353,1942 "/>
   </g>
   <g>
    <path class="fil0 str0" d="M361 1907l-5 18 -1 5c3,-11 6,-22 9,-33l-3 10z"/>
   </g>
   <g>
    <path class="fil0 str0" d="M5689 3080c2,-15 4,-31 6,-46l-9 69c1,-8 2,-15 3,-23z"/>
   </g>
   <g>
    <path class="fil0 str0" d="M5676 3165l7 -42c0,-1 0,-2 1,-3l-14 80 6 -35z"/>
   </g>
   <g>
    <path class="fil0 str0" d="M1014 756c-14,14 -28,29 -42,42 0,0 0,0 0,0l35 -35c2,-2 5,-4 7,-7z"/>
   </g>
   <path class="fil0 str0" d="M2051 5204c-40,-153 -74,-305 -100,-455 -119,-67 -233,-137 -341,-213 7,150 26,304 53,459l-4 2c25,14 50,29 75,43 -10,-6 -21,-12 -32,-18 -147,51 -300,95 -459,129 133,91 269,173 407,247 152,-51 298,-109 442,-171 -15,-7 -30,-14 -45,-22l4 -1z"/>
   <path class="fil0 str0" d="M1400 4829l4 -1c-15,-148 -19,-295 -12,-436 -93,-80 -181,-165 -259,-256 -30,137 -47,282 -52,431l-5 0c16,15 32,29 49,44 -4,-4 -8,-7 -12,-10 -146,19 -298,26 -453,19 105,117 218,224 337,322 154,-18 301,-48 444,-85 -14,-9 -27,-19 -41,-28z"/>
   <path class="fil0 str0" d="M906 4395c-11,-13 -22,-25 -33,-38l5 0c19,-138 52,-272 95,-397 -64,-94 -120,-192 -167,-294 -16,29 -31,58 -45,89 -15,30 -30,61 -43,92 -13,31 -25,63 -38,96 -12,32 -22,65 -33,98l-5 -1c16,27 33,53 50,78 -8,-11 -16,-23 -24,-35 -34,-5 -68,-11 -103,-17 -17,-4 -35,-7 -52,-11l-52 -12c-34,-8 -70,-17 -104,-27 -35,-10 -70,-21 -105,-33 65,134 141,262 228,382 144,23 288,32 426,30z"/>
   <path class="fil0 str0" d="M440 3815c31,10 62,20 94,28 -7,-15 -14,-30 -21,-45l4 1c14,-30 28,-60 42,-89 15,-28 31,-57 46,-85 31,-56 66,-110 100,-161 -34,-103 -60,-208 -81,-316 -21,24 -41,48 -62,72 -20,25 -40,50 -60,75 -20,26 -38,51 -57,78 -19,26 -38,54 -56,81l-4 -2c5,16 9,32 14,48 -29,-13 -59,-27 -89,-41 -29,-15 -58,-30 -88,-46 -60,-31 -116,-65 -175,-102 27,134 64,266 110,396l47 21c15,6 31,13 47,19 32,13 63,25 94,36 31,12 64,22 95,32z"/>
   <path class="fil0 str0" d="M257 3203c26,16 52,32 79,47 -3,-14 -6,-29 -8,-43l-1 -7 4 3c77,-96 158,-185 244,-267l-7 -78 -5 -79c-1,-26 -2,-52 -2,-79 0,-26 -2,-53 -1,-79 -47,37 -92,76 -138,116 -46,40 -89,81 -134,125l-3 -3c0,17 2,33 3,50 -98,-72 -194,-151 -286,-236l1 93 5 93 3 47 4 47c3,31 6,62 10,93 51,38 101,74 154,108 26,17 52,33 78,49z"/>
   <path class="fil0 str0" d="M289 2347c-40,-40 -77,-82 -115,-126 -19,-21 -39,-43 -57,-66 -18,-22 -36,-45 -54,-69 -4,29 -10,58 -13,87l-10 86 -5 43c-1,14 -2,29 -3,43l-6 86c40,43 83,83 124,123 42,39 83,77 128,113l-1 -40 0 -10 3 3c45,-37 89,-73 133,-107l33 -26 34 -25c23,-16 46,-32 68,-48 2,-24 3,-49 6,-73l8 -73 4 -36c2,-12 4,-24 6,-36l12 -72c-48,26 -97,54 -145,83 -48,30 -95,61 -142,94l-3 -3c-1,13 -3,26 -4,39l-1 10z"/>
   <path class="fil0 str0" d="M380 1835c-30,-44 -57,-88 -83,-134 -14,-24 -27,-47 -40,-71 -13,-24 -25,-47 -37,-72l-14 38c-5,13 -9,26 -13,39l-24 77c-9,26 -15,52 -22,78l-21 78c61,91 123,176 191,256 3,-16 5,-32 8,-49l3 3c22,-13 45,-26 69,-39 23,-12 46,-25 69,-37 23,-12 46,-23 69,-34 23,-11 47,-22 70,-32l17 -65 21 -64 10 -31 5 -16 6 -16 23 -62c-48,14 -97,30 -146,49 -48,18 -96,38 -145,60l-3 -4 -13 48z"/>
   <path class="fil0 str0" d="M444 1637l17 -47 2 4c45,-17 93,-31 138,-44 23,-6 46,-13 69,-19 22,-5 46,-10 69,-15l27 -56c9,-18 20,-36 30,-54 10,-17 19,-36 30,-53l33 -52c-24,2 -47,5 -70,8 -24,2 -48,6 -71,10 -47,8 -94,17 -142,28l-2 -4c-7,14 -15,29 -22,44 -9,-22 -18,-45 -27,-67 -8,-23 -16,-46 -24,-69 -16,-46 -32,-94 -44,-141 -14,20 -26,42 -38,64l-36 65c-12,22 -22,44 -33,66 -11,22 -23,44 -33,67 20,47 40,92 60,136 20,44 44,87 67,129z"/>
   <path class="fil0 str0" d="M644 1220c12,-18 23,-36 34,-53l-7 11 1 4c22,-3 44,-7 66,-9 22,-2 44,-5 65,-6 44,-4 86,-7 129,-8 24,-30 46,-60 71,-89l36 -43c13,-15 26,-28 39,-42 -43,-4 -87,-6 -130,-6 -43,-1 -88,-1 -132,1l-1 -4 -31 40c0,0 0,0 1,-1 -19,-86 -31,-173 -40,-264 -29,34 -58,68 -86,103l-41 54c-14,17 -28,35 -40,54 9,44 19,88 29,131 12,43 24,86 37,127z"/>
   <path class="fil0 str0" d="M936 837c-2,2 -5,4 -7,7l1 4c79,2 159,10 235,19l77 -70c27,-22 53,-45 80,-67 -38,-8 -76,-15 -115,-22 -20,-4 -39,-7 -59,-10l-59 -8 0 -4 -37 34 0 0c-2,-39 -2,-79 -2,-119 0,-40 1,-80 3,-121l-45 39c-16,13 -30,27 -45,40l-44 40 -43 43c2,80 10,161 19,238 14,-14 27,-29 41,-43z"/>
   <path class="fil0 str0" d="M1208 588c71,14 139,29 207,48l38 -28 40 -26 39 -26c13,-9 27,-17 40,-25 -66,-23 -133,-43 -203,-62l0 -4c-13,9 -27,19 -40,29 6,-71 16,-140 28,-212l-88 59 -86 62c-4,36 -7,72 -9,107l-3 53 -1 53c12,-11 25,-22 39,-32l-1 4z"/>
   <path class="fil0 str0" d="M1487 393c30,9 59,19 89,29 29,11 59,22 87,33 24,-14 49,-27 74,-40 12,-7 25,-13 37,-20l38 -18c-56,-26 -114,-50 -173,-72l1 -5c-15,8 -29,16 -44,24 13,-60 28,-120 44,-181l-82 43c-27,15 -53,30 -80,45 -13,61 -24,123 -33,184l43 -27 -1 5z"/>
   <path class="fil0 str0" d="M1749 249c25,10 50,21 75,32 24,12 48,23 72,35 23,-10 45,-20 68,-29 22,-9 44,-19 67,-27 -47,-27 -94,-51 -143,-75l1 -4c-16,6 -31,13 -46,20 15,-51 32,-101 50,-152 -24,10 -49,20 -73,30l-72 33c-15,51 -29,103 -42,154 14,-7 29,-14 44,-22l-1 5z"/>
   <path class="fil0 str0" d="M2228 57c-30,-19 -60,-37 -91,-55 -22,7 -45,14 -67,22 -22,9 -45,16 -67,25 -12,33 -25,66 -36,99 21,-8 43,-16 65,-25 31,17 62,35 92,52l32 -11 32 -10c21,-7 43,-15 64,-21 14,-32 29,-64 43,-96l-67 20z"/>
   <path class="fil0 str0" d="M3952 5204c40,-153 74,-305 100,-455 118,-67 233,-137 340,-213 -7,150 -25,304 -53,459l5 2c-25,14 -50,29 -75,43 10,-6 21,-12 31,-18 148,51 300,95 459,129 -132,91 -268,173 -406,247 -152,-51 -299,-109 -442,-171 15,-7 30,-14 45,-22l-4 -1z"/>
   <path class="fil0 str0" d="M4602 4829l-3 -1c14,-148 19,-295 12,-436 93,-80 180,-165 258,-256 30,137 48,282 53,431l5 0c-16,15 -33,29 -49,44 4,-4 8,-7 11,-10 147,19 298,26 454,19 -105,117 -219,224 -337,322 -154,-18 -302,-48 -444,-85 13,-9 27,-19 40,-28z"/>
   <path class="fil0 str0" d="M5096 4395c11,-13 22,-25 33,-38l-4 0c-20,-138 -53,-272 -95,-397 64,-94 119,-192 167,-294 16,29 31,58 45,89 15,30 29,61 42,92 13,31 26,63 38,96 13,32 23,65 34,98l5 -1c-16,27 -33,53 -50,78 8,-11 16,-23 23,-35 35,-5 69,-11 103,-17 18,-4 35,-7 53,-11l51 -12c35,-8 70,-17 105,-27 35,-10 70,-21 105,-33 -65,134 -142,262 -228,382 -145,23 -288,32 -427,30z"/>
   <path class="fil0 str0" d="M5563 3815c-32,10 -62,20 -94,28 7,-15 14,-30 21,-45l-4 1c-14,-30 -28,-60 -43,-89 -14,-28 -30,-57 -46,-85 -30,-56 -65,-110 -99,-161 34,-103 60,-208 80,-316 22,24 42,48 62,72 21,25 41,50 61,75 19,26 38,51 57,78 19,26 38,54 55,81l5 -2c-5,16 -10,32 -15,48 30,-13 60,-27 90,-41 29,-15 58,-30 88,-46 60,-31 116,-65 175,-102 -27,134 -64,266 -110,396l-47 21c-15,6 -32,13 -47,19 -32,13 -63,25 -94,36 -32,12 -64,22 -95,32z"/>
   <path class="fil0 str0" d="M5824 3154c52,-34 103,-70 154,-108 4,-31 6,-62 9,-93l5 -47 3 -47 5 -93 1 -93c-92,85 -189,164 -287,236 2,-17 4,-33 4,-50l-3 3c-45,-44 -88,-85 -134,-125 -46,-40 -91,-79 -138,-116 0,26 -1,53 -1,79 0,27 -1,53 -3,79l-4 79 -7 78c86,82 167,171 244,267l4 -3 -1 7c-2,14 -5,29 -8,43 27,-15 52,-31 79,-47 26,-16 52,-32 78,-49z"/>
   <path class="fil0 str0" d="M5714 2347c40,-40 77,-82 115,-126 19,-21 39,-43 57,-66 18,-22 36,-45 53,-69 5,29 10,58 14,87l10 86 4 43c2,14 3,29 4,43l6 86c-40,43 -83,83 -124,123 -43,39 -84,77 -128,113l1 -40 0 -10 -4 3c-44,-37 -88,-73 -132,-107l-33 -26 -34 -25c-23,-16 -46,-32 -69,-48 -2,-24 -2,-49 -5,-73l-8 -73 -5 -36c-1,-12 -3,-24 -5,-36l-12 -72c48,26 97,54 145,83 47,30 94,61 142,94l3 -3c1,13 3,26 4,39l1 10z"/>
   <path class="fil0 str0" d="M5609 1787l-2 4c-49,-22 -97,-42 -145,-60 -49,-19 -99,-35 -147,-49l24 62 6 16 5 16 10 31 20 64 17 65c24,10 47,21 71,32 23,11 46,22 69,34 23,12 46,25 69,37 23,13 47,26 69,39l3 -3c2,17 5,33 8,49 68,-80 129,-165 191,-256l-21 -78c-7,-26 -13,-52 -22,-78l-24 -77c-5,-13 -9,-26 -13,-39l-14 -38c-13,25 -24,48 -37,72 -13,24 -26,47 -40,71 -27,46 -53,90 -83,134l-14 -48z"/>
   <path class="fil0 str0" d="M5626 1508c20,-44 40,-89 59,-136 -10,-23 -21,-45 -32,-67 -11,-22 -22,-44 -33,-66l-37 -65c-12,-22 -24,-44 -37,-64 -12,47 -29,95 -44,141 -8,23 -16,46 -24,69 -9,22 -18,45 -27,67 -8,-15 -15,-30 -23,-44l-1 4c-48,-11 -96,-20 -142,-28 -23,-4 -47,-8 -71,-10 -23,-3 -47,-6 -70,-8l33 52c11,17 20,36 30,53 10,18 21,36 30,54l27 56c23,5 47,10 69,15 23,6 46,13 69,19 45,13 93,27 137,44l2 -4 18 47c23,-42 46,-85 67,-129z"/>
   <path class="fil0 str0" d="M5395 1093c11,-43 21,-87 30,-131 -12,-19 -26,-37 -40,-54l-41 -54c-28,-35 -57,-69 -86,-103 -10,91 -21,178 -40,264 0,1 1,1 1,1l-31 -40 -1 4c-44,-2 -89,-2 -132,-1 -43,0 -87,2 -130,6 13,14 26,27 38,42l37 43c25,29 47,59 70,89 44,1 86,4 129,8 22,1 44,4 66,6 22,2 44,6 65,9l2 -4 -7 -11c11,17 22,35 33,53 13,-41 26,-84 37,-127z"/>
   <path class="fil0 str0" d="M5108 880c9,-77 17,-158 19,-238l-43 -43 -44 -40c-15,-13 -29,-27 -45,-40l-46 -39c2,41 4,81 4,121 0,40 -1,80 -2,119l0 0 -37 -34 0 4 -59 8c-20,3 -40,6 -59,10 -39,7 -77,14 -115,22 27,22 53,45 80,67l77 70c76,-9 156,-17 235,-19l1 -4c-3,-3 -5,-5 -7,-7 14,14 27,29 41,43z"/>
   <path class="fil0 str0" d="M4674 494c-6,-71 -16,-140 -28,-212l88 59 86 62c4,36 6,72 9,107l3 53 1 53c-13,-11 -26,-22 -39,-32l0 4c-70,14 -139,29 -206,48l-39 -28 -39 -26 -39 -26c-13,-9 -27,-17 -40,-25 66,-23 133,-43 203,-62l-1 -4c14,9 28,19 41,29z"/>
   <path class="fil0 str0" d="M4515 388l43 27c-9,-61 -20,-123 -33,-184 -27,-15 -53,-30 -80,-45l-82 -43c16,61 31,121 43,181 -14,-8 -29,-16 -43,-24l0 5c-59,22 -116,46 -172,72l38 18c12,7 24,13 37,20 24,13 49,26 74,40 28,-11 57,-22 87,-33 29,-10 59,-20 89,-29l-1 -5z"/>
   <path class="fil0 str0" d="M4253 249c-25,10 -49,21 -74,32 -24,12 -49,23 -73,35 -22,-10 -44,-20 -67,-29 -22,-9 -45,-19 -68,-27 48,-27 95,-51 144,-75l-1 -4c15,6 30,13 46,20 -15,-51 -32,-101 -50,-152 24,10 48,20 72,30l72 33c16,51 30,103 43,154 -15,-7 -30,-14 -45,-22l1 5z"/>
   <path class="fil0 str0" d="M3707 37c15,32 30,64 43,96 22,6 43,14 65,21l32 10 32 11c30,-17 61,-35 92,-52 22,9 43,17 65,25 -12,-33 -24,-66 -37,-99 -22,-9 -44,-16 -66,-25 -23,-8 -45,-15 -68,-22 -30,18 -61,36 -91,55l-67 -20z"/>
   <path class="fil0 str0" d="M1987 1676l-140 0c-36,0 -65,201 -65,449 0,248 29,450 65,450l214 0c26,88 58,171 94,242l-28 -2c-50,0 -91,41 -91,91l0 153c0,50 41,91 91,91 27,0 48,21 48,48 0,26 -21,48 -48,48 -26,0 -48,-22 -48,-48l-1 0c-7,-30 -34,-53 -66,-53l-225 0c-71,0 -127,56 -128,128 -1,17 2,26 2,27 134,446 339,806 341,809 79,129 208,216 356,240 3,1 350,67 631,68l0 0 2 0 4 0 2 0 0 0c280,-1 627,-67 631,-68 147,-24 277,-111 355,-240 3,-3 208,-363 341,-809 0,-1 3,-10 3,-27 -1,-72 -58,-128 -129,-128l-225 0c-32,0 -59,23 -65,53l-2 0c0,26 -21,48 -48,48 -26,0 -48,-22 -48,-48 0,-27 22,-48 48,-48 50,0 91,-41 91,-91l0 -153c0,-50 -41,-91 -91,-91l-17 1c31,-73 58,-155 81,-241l199 0c36,0 65,-202 65,-450 0,-248 -29,-449 -65,-449l-136 0c-99,-436 -476,-766 -934,-795l0 -248c0,-34 -28,-62 -62,-62 -34,0 -62,28 -62,62l0 247c-461,27 -841,358 -940,796zm999 -266l0 0c394,0 715,321 715,715 0,395 -321,716 -715,716 -395,0 -716,-321 -716,-716 0,-394 321,-715 716,-715z"/>
   <path class="fil0 str0" d="M2986 2780c361,0 655,-293 655,-655 0,-361 -294,-655 -655,-655 -362,0 -655,294 -655,655 0,362 293,655 655,655zm-312 -468l0 0 137 -136 125 125 -137 136c-9,9 -25,9 -34,0l-91 -90c-9,-10 -9,-26 0,-35zm188 -188l0 0 125 -125 125 125 -125 125 -125 -125zm124 455l0 0c-89,0 -173,-26 -243,-70 12,5 26,8 39,8 26,0 51,-10 69,-28l136 -137 137 137c18,18 42,28 69,28 10,0 20,-2 30,-5 -69,42 -150,67 -237,67zm314 -232l0 0 -90 90c-10,10 -25,10 -35,0l-136 -136 125 -125 136 136c5,5 7,11 7,17 0,7 -2,13 -7,18zm76 -456l0 0c41,68 65,148 65,233 0,85 -24,165 -65,233 3,-9 4,-18 4,-28 0,-26 -10,-50 -28,-68l-137 -137 137 -136c18,-19 28,-43 28,-69 0,-10 -1,-19 -4,-28zm-69 28l0 0c0,6 -2,13 -7,17l-136 137 -125 -126 136 -136c5,-5 11,-7 18,-7 6,0 12,2 17,7l90 91c5,4 7,10 7,17zm-321 -250l0 0c87,0 168,25 237,67 -10,-3 -20,-5 -30,-5 -27,0 -51,10 -69,28l-137 137 -136 -137c-18,-18 -43,-28 -69,-28 -13,0 -26,3 -38,8 70,-44 153,-70 242,-70zm-312 233l0 0 91 -91c9,-9 25,-9 34,0l137 136 -125 126 -137 -137c-9,-9 -9,-25 0,-34zm-70 -25l0 0c-6,13 -10,27 -10,42 0,26 10,50 29,69l136 136 -136 137c-19,18 -29,42 -29,68 0,15 4,30 10,43 -46,-72 -73,-157 -73,-248 0,-91 27,-176 73,-247z"/>
   <path class="fil0 str0" d="M4096 1460c108,0 195,-87 195,-195 0,-108 -87,-196 -195,-196 -108,0 -195,88 -195,196 0,108 87,195 195,195zm120 -251l0 0c-5,-7 -6,-17 -1,-22 6,-6 17,-4 24,6 30,43 30,100 0,142 -7,10 -18,13 -24,7 -5,-6 -4,-16 1,-23 23,-33 23,-77 0,-110zm-25 -70l0 0c8,0 14,7 14,14 0,8 -6,14 -14,14 -7,0 -13,-6 -13,-14 0,-7 6,-14 13,-14z"/>
   <path class="fil0 str0" d="M1388 3077c108,0 195,-87 195,-195 0,-108 -87,-196 -195,-196 -108,0 -196,88 -196,196 0,108 88,195 196,195zm120 -251l0 0c-5,-7 -6,-17 -1,-23 6,-5 17,-3 24,7 30,42 30,100 0,142 -7,10 -18,12 -24,7 -5,-6 -4,-16 1,-23 23,-33 23,-77 0,-110zm-25 -70l0 0c8,0 14,6 14,14 0,7 -6,14 -14,14 -7,0 -13,-7 -13,-14 0,-8 6,-14 13,-14z"/>
   <path class="fil0 str0" d="M3820 935c-60,0 -108,48 -108,108 0,59 48,107 108,107 59,0 107,-48 107,-107 0,-60 -48,-108 -107,-108zm52 53l0 0c-4,0 -7,-3 -7,-7 0,-4 3,-8 7,-8 5,0 8,4 8,8 0,4 -3,7 -8,7zm27 94l0 0c-4,5 -10,6 -13,3 -3,-3 -3,-9 0,-13 13,-18 13,-42 0,-60 -3,-4 -3,-9 0,-13 3,-3 9,-2 13,4 16,23 16,55 0,79z"/>
   <path class="fil0 str0" d="M1004 2552c0,59 48,107 108,107 59,0 107,-48 107,-107 0,-60 -48,-108 -107,-108 -60,0 -108,48 -108,108zm174 -31l0 0c-3,-4 -4,-9 -1,-13 3,-3 10,-2 14,4 16,23 16,55 0,79 -4,5 -11,6 -14,3 -3,-3 -2,-9 1,-13 12,-18 12,-42 0,-60zm-14 -39l0 0c4,0 8,4 8,8 0,4 -4,7 -8,7 -4,0 -7,-3 -7,-7 0,-4 3,-8 7,-8z"/>
   <path class="fil0 str0" d="M1489 2066c-60,0 -108,49 -108,108 0,60 48,108 108,108 59,0 108,-48 108,-108 0,-59 -49,-108 -108,-108zm53 54l0 0c-5,0 -8,-3 -8,-7 0,-5 3,-8 8,-8 4,0 7,3 7,8 0,4 -3,7 -7,7zm13 97l0 0c-3,-3 -3,-9 0,-13 13,-18 13,-42 0,-60 -3,-4 -3,-10 0,-13 3,-3 9,-2 13,4 16,23 16,55 0,78 -4,6 -10,7 -13,4z"/>
   <path class="fil0 str0" d="M1489 1622c-60,0 -108,48 -108,108 0,59 48,107 108,107 59,0 108,-48 108,-107 0,-60 -49,-108 -108,-108zm53 54l0 0c-5,0 -8,-4 -8,-8 0,-4 3,-8 8,-8 4,0 7,4 7,8 0,4 -3,8 -7,8zm13 96l0 0c-3,-3 -3,-9 0,-12 13,-19 13,-43 0,-61 -3,-4 -3,-9 0,-12 3,-4 9,-2 13,3 16,24 16,55 0,79 -4,5 -10,6 -13,3z"/>
   <path class="fil0 str0" d="M4076 894c0,-29 -24,-54 -54,-54 -30,0 -54,25 -54,54 0,30 24,54 54,54 30,0 54,-24 54,-54zm-21 -15l0 0c-2,-2 -2,-5 0,-6 1,-2 4,-1 6,1 9,12 9,28 0,40 -2,2 -5,3 -6,2 -2,-2 -2,-5 0,-7 6,-9 6,-21 0,-30zm-7 -19l0 0c2,0 4,1 4,3 0,3 -2,4 -4,4 -2,0 -4,-1 -4,-4 0,-2 2,-3 4,-3z"/>
   <path class="fil0 str0" d="M1165 2255c0,-30 -24,-54 -53,-54 -30,0 -54,24 -54,54 0,30 24,54 54,54 29,0 53,-24 53,-54zm-20 -15l0 0c-2,-2 -2,-5 0,-6 1,-2 4,-1 6,1 8,12 8,28 0,40 -2,2 -5,3 -6,1 -2,-1 -2,-4 0,-6 6,-9 6,-21 0,-30zm-7 -19l0 0c2,0 4,1 4,3 0,2 -2,4 -4,4 -2,0 -4,-2 -4,-4 0,-2 2,-3 4,-3z"/>
   <path class="fil0 str0" d="M1327 2120c30,0 54,-24 54,-54 0,-29 -24,-53 -54,-53 -30,0 -54,24 -54,53 0,30 24,54 54,54zm33 -69l0 0c-1,-2 -1,-4 0,-6 2,-2 5,-1 7,2 8,11 8,27 0,39 -2,3 -5,3 -7,2 -1,-2 -1,-5 0,-7 7,-9 7,-21 0,-30zm-7 -19l0 0c3,0 4,2 4,4 0,2 -1,3 -4,3 -2,0 -3,-1 -3,-3 0,-2 1,-4 3,-4z"/>
   <path class="fil0 str0" d="M1327 2430c30,0 54,-24 54,-54 0,-29 -24,-54 -54,-54 -30,0 -54,25 -54,54 0,30 24,54 54,54zm33 -69l0 0c-1,-2 -1,-5 0,-6 2,-2 5,-1 7,2 8,11 8,27 0,39 -2,3 -5,3 -7,2 -1,-2 -1,-5 0,-7 7,-9 7,-21 0,-30zm-7 -19l0 0c3,0 4,1 4,4 0,2 -1,3 -4,3 -2,0 -3,-1 -3,-3 0,-3 1,-4 3,-4z"/>
   <path class="fil0 str0" d="M3489 4829l-995 0 -230 398 -42 0 243 422 1052 0 244 -422 -42 0 -230 -398zm-804 746l0 0 -128 0 -201 -348 35 0 190 -329 121 0 -190 329 -28 0 201 348zm371 -348l0 0 -201 348 -128 0 201 -348 3 0 190 -329 121 0 -190 329 4 0zm370 348l0 0 -128 0 201 -348 -28 0 -190 -329 122 0 190 329 34 0 -201 348z"/>
  </g>
 </g>
</svg>
